%TF.GenerationSoftware,KiCad,Pcbnew,(6.0.9)*%
%TF.CreationDate,2022-12-17T23:06:55-06:00*%
%TF.ProjectId,STM32_Bluepill,53544d33-325f-4426-9c75-6570696c6c2e,A*%
%TF.SameCoordinates,Original*%
%TF.FileFunction,Copper,L1,Top*%
%TF.FilePolarity,Positive*%
%FSLAX46Y46*%
G04 Gerber Fmt 4.6, Leading zero omitted, Abs format (unit mm)*
G04 Created by KiCad (PCBNEW (6.0.9)) date 2022-12-17 23:06:55*
%MOMM*%
%LPD*%
G01*
G04 APERTURE LIST*
G04 Aperture macros list*
%AMRoundRect*
0 Rectangle with rounded corners*
0 $1 Rounding radius*
0 $2 $3 $4 $5 $6 $7 $8 $9 X,Y pos of 4 corners*
0 Add a 4 corners polygon primitive as box body*
4,1,4,$2,$3,$4,$5,$6,$7,$8,$9,$2,$3,0*
0 Add four circle primitives for the rounded corners*
1,1,$1+$1,$2,$3*
1,1,$1+$1,$4,$5*
1,1,$1+$1,$6,$7*
1,1,$1+$1,$8,$9*
0 Add four rect primitives between the rounded corners*
20,1,$1+$1,$2,$3,$4,$5,0*
20,1,$1+$1,$4,$5,$6,$7,0*
20,1,$1+$1,$6,$7,$8,$9,0*
20,1,$1+$1,$8,$9,$2,$3,0*%
G04 Aperture macros list end*
%TA.AperFunction,SMDPad,CuDef*%
%ADD10RoundRect,0.075000X-0.662500X-0.075000X0.662500X-0.075000X0.662500X0.075000X-0.662500X0.075000X0*%
%TD*%
%TA.AperFunction,SMDPad,CuDef*%
%ADD11RoundRect,0.075000X-0.075000X-0.662500X0.075000X-0.662500X0.075000X0.662500X-0.075000X0.662500X0*%
%TD*%
%TA.AperFunction,ComponentPad*%
%ADD12R,1.700000X1.700000*%
%TD*%
%TA.AperFunction,ComponentPad*%
%ADD13O,1.700000X1.700000*%
%TD*%
%TA.AperFunction,SMDPad,CuDef*%
%ADD14RoundRect,0.135000X-0.135000X-0.185000X0.135000X-0.185000X0.135000X0.185000X-0.135000X0.185000X0*%
%TD*%
%TA.AperFunction,SMDPad,CuDef*%
%ADD15R,1.300000X0.450000*%
%TD*%
%TA.AperFunction,ComponentPad*%
%ADD16O,2.000000X1.450000*%
%TD*%
%TA.AperFunction,ComponentPad*%
%ADD17O,1.800000X1.150000*%
%TD*%
%TA.AperFunction,SMDPad,CuDef*%
%ADD18RoundRect,0.140000X0.170000X-0.140000X0.170000X0.140000X-0.170000X0.140000X-0.170000X-0.140000X0*%
%TD*%
%TA.AperFunction,SMDPad,CuDef*%
%ADD19R,0.800000X1.000000*%
%TD*%
%TA.AperFunction,SMDPad,CuDef*%
%ADD20R,1.500000X0.700000*%
%TD*%
%TA.AperFunction,SMDPad,CuDef*%
%ADD21RoundRect,0.250000X0.475000X-0.250000X0.475000X0.250000X-0.475000X0.250000X-0.475000X-0.250000X0*%
%TD*%
%TA.AperFunction,SMDPad,CuDef*%
%ADD22RoundRect,0.140000X0.140000X0.170000X-0.140000X0.170000X-0.140000X-0.170000X0.140000X-0.170000X0*%
%TD*%
%TA.AperFunction,SMDPad,CuDef*%
%ADD23R,1.500000X2.000000*%
%TD*%
%TA.AperFunction,SMDPad,CuDef*%
%ADD24R,3.800000X2.000000*%
%TD*%
%TA.AperFunction,SMDPad,CuDef*%
%ADD25RoundRect,0.225000X-0.225000X-0.250000X0.225000X-0.250000X0.225000X0.250000X-0.225000X0.250000X0*%
%TD*%
%TA.AperFunction,SMDPad,CuDef*%
%ADD26RoundRect,0.140000X-0.170000X0.140000X-0.170000X-0.140000X0.170000X-0.140000X0.170000X0.140000X0*%
%TD*%
%TA.AperFunction,SMDPad,CuDef*%
%ADD27RoundRect,0.218750X-0.256250X0.218750X-0.256250X-0.218750X0.256250X-0.218750X0.256250X0.218750X0*%
%TD*%
%TA.AperFunction,SMDPad,CuDef*%
%ADD28RoundRect,0.135000X0.135000X0.185000X-0.135000X0.185000X-0.135000X-0.185000X0.135000X-0.185000X0*%
%TD*%
%TA.AperFunction,SMDPad,CuDef*%
%ADD29R,1.200000X1.400000*%
%TD*%
%TA.AperFunction,SMDPad,CuDef*%
%ADD30RoundRect,0.140000X-0.140000X-0.170000X0.140000X-0.170000X0.140000X0.170000X-0.140000X0.170000X0*%
%TD*%
%TA.AperFunction,SMDPad,CuDef*%
%ADD31RoundRect,0.135000X0.185000X-0.135000X0.185000X0.135000X-0.185000X0.135000X-0.185000X-0.135000X0*%
%TD*%
%TA.AperFunction,SMDPad,CuDef*%
%ADD32RoundRect,0.135000X-0.185000X0.135000X-0.185000X-0.135000X0.185000X-0.135000X0.185000X0.135000X0*%
%TD*%
%TA.AperFunction,SMDPad,CuDef*%
%ADD33RoundRect,0.250000X-0.250000X-0.475000X0.250000X-0.475000X0.250000X0.475000X-0.250000X0.475000X0*%
%TD*%
%TA.AperFunction,ViaPad*%
%ADD34C,0.800000*%
%TD*%
%TA.AperFunction,ViaPad*%
%ADD35C,0.700000*%
%TD*%
%TA.AperFunction,Conductor*%
%ADD36C,0.500000*%
%TD*%
%TA.AperFunction,Conductor*%
%ADD37C,0.300000*%
%TD*%
%TA.AperFunction,Conductor*%
%ADD38C,0.200000*%
%TD*%
G04 APERTURE END LIST*
D10*
%TO.P,U1,1,VBAT*%
%TO.N,+3.3V*%
X175137500Y-88850000D03*
%TO.P,U1,2,PC13*%
%TO.N,unconnected-(U1-Pad2)*%
X175137500Y-89350000D03*
%TO.P,U1,3,PC14*%
%TO.N,unconnected-(U1-Pad3)*%
X175137500Y-89850000D03*
%TO.P,U1,4,PC15*%
%TO.N,unconnected-(U1-Pad4)*%
X175137500Y-90350000D03*
%TO.P,U1,5,PD0*%
%TO.N,/HSE_IN*%
X175137500Y-90850000D03*
%TO.P,U1,6,PD1*%
%TO.N,/HSE_OUT*%
X175137500Y-91350000D03*
%TO.P,U1,7,NRST*%
%TO.N,/NRST*%
X175137500Y-91850000D03*
%TO.P,U1,8,VSSA*%
%TO.N,GND*%
X175137500Y-92350000D03*
%TO.P,U1,9,VDDA*%
%TO.N,+3.3VA*%
X175137500Y-92850000D03*
%TO.P,U1,10,PA0*%
%TO.N,unconnected-(U1-Pad10)*%
X175137500Y-93350000D03*
%TO.P,U1,11,PA1*%
%TO.N,unconnected-(U1-Pad11)*%
X175137500Y-93850000D03*
%TO.P,U1,12,PA2*%
%TO.N,unconnected-(U1-Pad12)*%
X175137500Y-94350000D03*
D11*
%TO.P,U1,13,PA3*%
%TO.N,unconnected-(U1-Pad13)*%
X176550000Y-95762500D03*
%TO.P,U1,14,PA4*%
%TO.N,unconnected-(U1-Pad14)*%
X177050000Y-95762500D03*
%TO.P,U1,15,PA5*%
%TO.N,unconnected-(U1-Pad15)*%
X177550000Y-95762500D03*
%TO.P,U1,16,PA6*%
%TO.N,unconnected-(U1-Pad16)*%
X178050000Y-95762500D03*
%TO.P,U1,17,PA7*%
%TO.N,unconnected-(U1-Pad17)*%
X178550000Y-95762500D03*
%TO.P,U1,18,PB0*%
%TO.N,unconnected-(U1-Pad18)*%
X179050000Y-95762500D03*
%TO.P,U1,19,PB1*%
%TO.N,unconnected-(U1-Pad19)*%
X179550000Y-95762500D03*
%TO.P,U1,20,PB2*%
%TO.N,unconnected-(U1-Pad20)*%
X180050000Y-95762500D03*
%TO.P,U1,21,PB10*%
%TO.N,/I2C2_SCL*%
X180550000Y-95762500D03*
%TO.P,U1,22,PB11*%
%TO.N,/I2C2_SDA*%
X181050000Y-95762500D03*
%TO.P,U1,23,VSS*%
%TO.N,GND*%
X181550000Y-95762500D03*
%TO.P,U1,24,VDD*%
%TO.N,+3.3V*%
X182050000Y-95762500D03*
D10*
%TO.P,U1,25,PB12*%
%TO.N,unconnected-(U1-Pad25)*%
X183462500Y-94350000D03*
%TO.P,U1,26,PB13*%
%TO.N,unconnected-(U1-Pad26)*%
X183462500Y-93850000D03*
%TO.P,U1,27,PB14*%
%TO.N,unconnected-(U1-Pad27)*%
X183462500Y-93350000D03*
%TO.P,U1,28,PB15*%
%TO.N,unconnected-(U1-Pad28)*%
X183462500Y-92850000D03*
%TO.P,U1,29,PA8*%
%TO.N,unconnected-(U1-Pad29)*%
X183462500Y-92350000D03*
%TO.P,U1,30,PA9*%
%TO.N,unconnected-(U1-Pad30)*%
X183462500Y-91850000D03*
%TO.P,U1,31,PA10*%
%TO.N,unconnected-(U1-Pad31)*%
X183462500Y-91350000D03*
%TO.P,U1,32,PA11*%
%TO.N,/USB_D-*%
X183462500Y-90850000D03*
%TO.P,U1,33,PA12*%
%TO.N,/USB_D+*%
X183462500Y-90350000D03*
%TO.P,U1,34,PA13*%
%TO.N,/SWDIO*%
X183462500Y-89850000D03*
%TO.P,U1,35,VSS*%
%TO.N,GND*%
X183462500Y-89350000D03*
%TO.P,U1,36,VDD*%
%TO.N,+3.3V*%
X183462500Y-88850000D03*
D11*
%TO.P,U1,37,PA14*%
%TO.N,/SWCLK*%
X182050000Y-87437500D03*
%TO.P,U1,38,PA15*%
%TO.N,unconnected-(U1-Pad38)*%
X181550000Y-87437500D03*
%TO.P,U1,39,PB3*%
%TO.N,unconnected-(U1-Pad39)*%
X181050000Y-87437500D03*
%TO.P,U1,40,PB4*%
%TO.N,unconnected-(U1-Pad40)*%
X180550000Y-87437500D03*
%TO.P,U1,41,PB5*%
%TO.N,unconnected-(U1-Pad41)*%
X180050000Y-87437500D03*
%TO.P,U1,42,PB6*%
%TO.N,/USART1_TX*%
X179550000Y-87437500D03*
%TO.P,U1,43,PB7*%
%TO.N,/USART1_RX*%
X179050000Y-87437500D03*
%TO.P,U1,44,BOOT0*%
%TO.N,/BOOT0*%
X178550000Y-87437500D03*
%TO.P,U1,45,PB8*%
%TO.N,unconnected-(U1-Pad45)*%
X178050000Y-87437500D03*
%TO.P,U1,46,PB9*%
%TO.N,unconnected-(U1-Pad46)*%
X177550000Y-87437500D03*
%TO.P,U1,47,VSS*%
%TO.N,GND*%
X177050000Y-87437500D03*
%TO.P,U1,48,VDD*%
%TO.N,+3.3V*%
X176550000Y-87437500D03*
%TD*%
D12*
%TO.P,J2,1,Pin_1*%
%TO.N,+3.3V*%
X176200000Y-79200000D03*
D13*
%TO.P,J2,2,Pin_2*%
%TO.N,/USART1_TX*%
X173660000Y-79200000D03*
%TO.P,J2,3,Pin_3*%
%TO.N,/USART1_RX*%
X171120000Y-79200000D03*
%TO.P,J2,4,Pin_4*%
%TO.N,GND*%
X168580000Y-79200000D03*
%TD*%
D14*
%TO.P,R5,1*%
%TO.N,/PWR_LED_K*%
X195933600Y-96266000D03*
%TO.P,R5,2*%
%TO.N,GND*%
X196953600Y-96266000D03*
%TD*%
D15*
%TO.P,J1,1,VBUS*%
%TO.N,VBUS*%
X194600000Y-91700000D03*
%TO.P,J1,2,D-*%
%TO.N,/USB_D-*%
X194600000Y-91050000D03*
%TO.P,J1,3,D+*%
%TO.N,/USB_D+*%
X194600000Y-90400000D03*
%TO.P,J1,4,ID*%
%TO.N,unconnected-(J1-Pad4)*%
X194600000Y-89750000D03*
%TO.P,J1,5,GND*%
%TO.N,GND*%
X194600000Y-89100000D03*
D16*
%TO.P,J1,6,Shield*%
%TO.N,unconnected-(J1-Pad6)*%
X194650000Y-94125000D03*
D17*
X198450000Y-86525000D03*
D16*
X194650000Y-86675000D03*
D17*
X198450000Y-94275000D03*
%TD*%
D18*
%TO.P,C2,1*%
%TO.N,+3.3V*%
X173483000Y-88854000D03*
%TO.P,C2,2*%
%TO.N,GND*%
X173483000Y-87894000D03*
%TD*%
D19*
%TO.P,SW_1,*%
%TO.N,*%
X160400000Y-83850000D03*
X162610000Y-83850000D03*
X160400000Y-91150000D03*
X162610000Y-91150000D03*
D20*
%TO.P,SW_1,1,A*%
%TO.N,GND*%
X163260000Y-85250000D03*
%TO.P,SW_1,2,B*%
%TO.N,/SW_BOOT0*%
X163260000Y-88250000D03*
%TO.P,SW_1,3,C*%
%TO.N,+3.3V*%
X163260000Y-89750000D03*
%TD*%
D21*
%TO.P,C13,1*%
%TO.N,+3.3V*%
X192600000Y-99700000D03*
%TO.P,C13,2*%
%TO.N,GND*%
X192600000Y-97800000D03*
%TD*%
D22*
%TO.P,C7,1*%
%TO.N,+3.3VA*%
X173303000Y-96045000D03*
%TO.P,C7,2*%
%TO.N,GND*%
X172343000Y-96045000D03*
%TD*%
%TO.P,C8,1*%
%TO.N,+3.3V*%
X173303000Y-98024000D03*
%TO.P,C8,2*%
%TO.N,GND*%
X172343000Y-98024000D03*
%TD*%
D12*
%TO.P,J4,1,Pin_1*%
%TO.N,+3.3V*%
X173200000Y-105800000D03*
D13*
%TO.P,J4,2,Pin_2*%
%TO.N,/I2C2_SCL*%
X175740000Y-105800000D03*
%TO.P,J4,3,Pin_3*%
%TO.N,/I2C2_SDA*%
X178280000Y-105800000D03*
%TO.P,J4,4,Pin_4*%
%TO.N,GND*%
X180820000Y-105800000D03*
%TD*%
D18*
%TO.P,C10,1*%
%TO.N,/HSE_IN*%
X171400000Y-89669000D03*
%TO.P,C10,2*%
%TO.N,GND*%
X171400000Y-88709000D03*
%TD*%
D23*
%TO.P,U2,1,GND*%
%TO.N,GND*%
X190000000Y-96450000D03*
%TO.P,U2,2,VO*%
%TO.N,+3.3V*%
X187700000Y-96450000D03*
D24*
X187700000Y-102750000D03*
D23*
%TO.P,U2,3,VI*%
%TO.N,VBUS*%
X185400000Y-96450000D03*
%TD*%
D25*
%TO.P,C1,1*%
%TO.N,+3.3V*%
X176008000Y-83874000D03*
%TO.P,C1,2*%
%TO.N,GND*%
X177558000Y-83874000D03*
%TD*%
D26*
%TO.P,C4,1*%
%TO.N,+3.3V*%
X185183000Y-88594000D03*
%TO.P,C4,2*%
%TO.N,GND*%
X185183000Y-89554000D03*
%TD*%
D27*
%TO.P,FB1,1*%
%TO.N,+3.3VA*%
X174621000Y-96236500D03*
%TO.P,FB1,2*%
%TO.N,+3.3V*%
X174621000Y-97811500D03*
%TD*%
D28*
%TO.P,R3,1*%
%TO.N,+3.3V*%
X176710000Y-103260000D03*
%TO.P,R3,2*%
%TO.N,/I2C2_SCL*%
X175690000Y-103260000D03*
%TD*%
D29*
%TO.P,Y1,1,1*%
%TO.N,/HSE_IN*%
X168176000Y-88900000D03*
%TO.P,Y1,2,2*%
%TO.N,GND*%
X168176000Y-91100000D03*
%TO.P,Y1,3,3*%
%TO.N,/HSE_OUT*%
X169876000Y-91100000D03*
%TO.P,Y1,4,4*%
%TO.N,GND*%
X169876000Y-88900000D03*
%TD*%
D12*
%TO.P,J3,1,Pin_1*%
%TO.N,+3.3V*%
X191600000Y-79200000D03*
D13*
%TO.P,J3,2,Pin_2*%
%TO.N,/SWDIO*%
X189060000Y-79200000D03*
%TO.P,J3,3,Pin_3*%
%TO.N,/SWCLK*%
X186520000Y-79200000D03*
%TO.P,J3,4,Pin_4*%
%TO.N,GND*%
X183980000Y-79200000D03*
%TD*%
D30*
%TO.P,C5,1*%
%TO.N,+3.3V*%
X176303000Y-85474000D03*
%TO.P,C5,2*%
%TO.N,GND*%
X177263000Y-85474000D03*
%TD*%
D18*
%TO.P,C6,1*%
%TO.N,+3.3VA*%
X173383000Y-93054000D03*
%TO.P,C6,2*%
%TO.N,GND*%
X173383000Y-92094000D03*
%TD*%
D30*
%TO.P,C9,1*%
%TO.N,/NRST*%
X176553000Y-97524000D03*
%TO.P,C9,2*%
%TO.N,GND*%
X177513000Y-97524000D03*
%TD*%
D31*
%TO.P,R1,1*%
%TO.N,/SW_BOOT0*%
X165049200Y-85854000D03*
%TO.P,R1,2*%
%TO.N,/BOOT0*%
X165049200Y-84834000D03*
%TD*%
D18*
%TO.P,C11,1*%
%TO.N,/HSE_OUT*%
X171400000Y-91707000D03*
%TO.P,C11,2*%
%TO.N,GND*%
X171400000Y-90747000D03*
%TD*%
D32*
%TO.P,R2,1*%
%TO.N,+3.3V*%
X188300000Y-89080000D03*
%TO.P,R2,2*%
%TO.N,/USB_D+*%
X188300000Y-90100000D03*
%TD*%
D33*
%TO.P,C12,1*%
%TO.N,VBUS*%
X186950000Y-93900000D03*
%TO.P,C12,2*%
%TO.N,GND*%
X188850000Y-93900000D03*
%TD*%
D27*
%TO.P,D1,1,K*%
%TO.N,/PWR_LED_K*%
X195900000Y-98025000D03*
%TO.P,D1,2,A*%
%TO.N,+3.3V*%
X195900000Y-99600000D03*
%TD*%
D22*
%TO.P,C3,1*%
%TO.N,+3.3V*%
X182500000Y-97524000D03*
%TO.P,C3,2*%
%TO.N,GND*%
X181540000Y-97524000D03*
%TD*%
D14*
%TO.P,R4,1*%
%TO.N,+3.3V*%
X177890000Y-103260000D03*
%TO.P,R4,2*%
%TO.N,/I2C2_SDA*%
X178910000Y-103260000D03*
%TD*%
D34*
%TO.N,+3.3V*%
X179679600Y-101981000D03*
X197268432Y-97163146D03*
X178160500Y-101955600D03*
X176439500Y-104216200D03*
X174940500Y-104216200D03*
X196392800Y-95351600D03*
%TO.N,GND*%
X172339000Y-95072200D03*
D35*
X181540000Y-94340000D03*
D34*
X190500000Y-98044000D03*
X171450000Y-87630000D03*
X193040000Y-89154000D03*
D35*
X177060000Y-88860000D03*
D34*
X176451268Y-92599500D03*
X172350500Y-99009200D03*
X194056000Y-97764600D03*
X190246000Y-94488000D03*
D35*
X163710000Y-84260000D03*
D34*
X197916800Y-96266000D03*
X168198800Y-92557600D03*
X190246000Y-93472000D03*
X169875200Y-87477600D03*
X189484000Y-98044000D03*
X172466000Y-90678000D03*
D35*
X173480000Y-86910000D03*
X178470000Y-97440000D03*
X186350000Y-89540000D03*
%TD*%
D36*
%TO.N,+3.3V*%
X175079000Y-83874000D02*
X175079000Y-88750000D01*
X175079000Y-88750000D02*
X175137500Y-88750000D01*
X169567200Y-83874000D02*
X175079000Y-83874000D01*
D37*
X182500000Y-96851200D02*
X182500000Y-97524000D01*
X183462500Y-88850000D02*
X184107000Y-88850000D01*
D36*
X196600001Y-95144399D02*
X196392800Y-95351600D01*
X190174800Y-77774800D02*
X191600000Y-79200000D01*
X176303000Y-84794000D02*
X176303000Y-85474000D01*
X164834200Y-89750000D02*
X164834200Y-88607000D01*
X183616600Y-102006400D02*
X183616600Y-97993200D01*
X193065400Y-106324400D02*
X185064400Y-106324400D01*
X192151000Y-81610200D02*
X195275200Y-81610200D01*
X176008000Y-83874000D02*
X176008000Y-84499000D01*
D37*
X173487000Y-88850000D02*
X173483000Y-88854000D01*
D36*
X173228000Y-104216200D02*
X173200000Y-104188200D01*
X177876200Y-103246200D02*
X177890000Y-103260000D01*
X182512000Y-97536000D02*
X182500000Y-97524000D01*
X192600000Y-99700000D02*
X194340400Y-99700000D01*
X194340400Y-99700000D02*
X194340400Y-101214000D01*
X191850201Y-84044599D02*
X188300000Y-87594800D01*
D37*
X176550000Y-86841000D02*
X176303000Y-86594000D01*
D36*
X176710000Y-103260000D02*
X177890000Y-103260000D01*
X197281800Y-100406200D02*
X197281800Y-97637600D01*
X183462500Y-88622300D02*
X183462500Y-88750000D01*
X173200000Y-104188200D02*
X173200000Y-98127000D01*
X164846000Y-89761800D02*
X164834200Y-89750000D01*
X196474000Y-101214000D02*
X197281800Y-100406200D01*
X164846000Y-101981000D02*
X167053200Y-104188200D01*
X196600001Y-84044599D02*
X196600001Y-95144399D01*
X177625200Y-77774800D02*
X190174800Y-77774800D01*
X167053200Y-104188200D02*
X173200000Y-104188200D01*
X174940500Y-104216200D02*
X173228000Y-104216200D01*
X176710000Y-103260000D02*
X176710000Y-103909200D01*
X196600001Y-82935001D02*
X196600001Y-84044599D01*
D37*
X182500000Y-97524000D02*
X182513400Y-97510600D01*
D36*
X179705000Y-102006400D02*
X179679600Y-101981000D01*
D37*
X182050000Y-95762500D02*
X182050000Y-96401200D01*
D36*
X188300000Y-87594800D02*
X188300000Y-89080000D01*
D37*
X175137500Y-88850000D02*
X173487000Y-88850000D01*
D36*
X176710000Y-103909200D02*
X176707800Y-103911400D01*
D37*
X176303000Y-86594000D02*
X176303000Y-85474000D01*
D36*
X173200000Y-98127000D02*
X173303000Y-98024000D01*
X178160500Y-101976100D02*
X177876200Y-102260400D01*
D37*
X176550000Y-87437500D02*
X176550000Y-86841000D01*
D36*
X185064400Y-106324400D02*
X183616600Y-104876600D01*
D37*
X182050000Y-96401200D02*
X182500000Y-96851200D01*
D36*
X194340400Y-99700000D02*
X195800000Y-99700000D01*
X183616600Y-102006400D02*
X179705000Y-102006400D01*
X178160500Y-101955600D02*
X178160500Y-101976100D01*
X175079000Y-83874000D02*
X176008000Y-83874000D01*
X191600000Y-81059200D02*
X192151000Y-81610200D01*
X188300000Y-87594800D02*
X184490000Y-87594800D01*
X173200000Y-105800000D02*
X173200000Y-104188200D01*
X197281800Y-97637600D02*
X197281800Y-97176514D01*
X182803800Y-97536000D02*
X182512000Y-97536000D01*
D37*
X185183000Y-88594000D02*
X186790400Y-88594000D01*
D36*
X194340400Y-101214000D02*
X194340400Y-105049400D01*
X183147400Y-97524000D02*
X182815800Y-97524000D01*
X176008000Y-84499000D02*
X176303000Y-84794000D01*
D37*
X184107000Y-88850000D02*
X184363000Y-88594000D01*
D36*
X182815800Y-97524000D02*
X182803800Y-97536000D01*
X195800000Y-99700000D02*
X195900000Y-99600000D01*
X177876200Y-102260400D02*
X177876200Y-103246200D01*
X173303000Y-98024000D02*
X174408500Y-98024000D01*
X164834200Y-88607000D02*
X169567200Y-83874000D01*
X194340400Y-105049400D02*
X193065400Y-106324400D01*
X196600001Y-84044599D02*
X191850201Y-84044599D01*
X174408500Y-98024000D02*
X174621000Y-97811500D01*
D37*
X184363000Y-88594000D02*
X185183000Y-88594000D01*
D36*
X164846000Y-101981000D02*
X164846000Y-89761800D01*
X195275200Y-81610200D02*
X196600001Y-82935001D01*
X163260000Y-89750000D02*
X164834200Y-89750000D01*
X194340400Y-101214000D02*
X196474000Y-101214000D01*
X197281800Y-97176514D02*
X197268432Y-97163146D01*
X176707800Y-103911400D02*
X176439500Y-104179700D01*
X176439500Y-104179700D02*
X176439500Y-104216200D01*
X176200000Y-79200000D02*
X177625200Y-77774800D01*
X183616600Y-97993200D02*
X183147400Y-97524000D01*
D37*
X187276400Y-89080000D02*
X188300000Y-89080000D01*
D36*
X183616600Y-104876600D02*
X183616600Y-102006400D01*
D37*
X186790400Y-88594000D02*
X187276400Y-89080000D01*
D36*
X184490000Y-87594800D02*
X183462500Y-88622300D01*
X191600000Y-79200000D02*
X191600000Y-81059200D01*
%TO.N,GND*%
X177558000Y-84699000D02*
X177263000Y-84994000D01*
X172343000Y-95076200D02*
X172339000Y-95072200D01*
X173483000Y-87894000D02*
X173483000Y-86913000D01*
D37*
X185183000Y-89554000D02*
X186336000Y-89554000D01*
X184505041Y-89554000D02*
X185183000Y-89554000D01*
D36*
X196953600Y-96266000D02*
X197916800Y-96266000D01*
X163710000Y-84800000D02*
X163710000Y-84260000D01*
X171400000Y-90747000D02*
X172397000Y-90747000D01*
X178386000Y-97524000D02*
X178470000Y-97440000D01*
X168176000Y-92534800D02*
X168198800Y-92557600D01*
D37*
X174290400Y-92350000D02*
X174034400Y-92094000D01*
D36*
X172397000Y-90747000D02*
X172466000Y-90678000D01*
D37*
X169876000Y-88900000D02*
X169876000Y-87478400D01*
X176451268Y-92599500D02*
X176201768Y-92350000D01*
X181550000Y-94350000D02*
X181540000Y-94340000D01*
X181550000Y-97514000D02*
X181540000Y-97524000D01*
X175137500Y-92350000D02*
X176201768Y-92350000D01*
X177050000Y-88850000D02*
X177060000Y-88860000D01*
D36*
X172343000Y-96045000D02*
X172343000Y-95076200D01*
X172343000Y-98024000D02*
X172343000Y-99001700D01*
D37*
X177050000Y-86598959D02*
X177263000Y-86385959D01*
D36*
X177558000Y-83874000D02*
X177558000Y-84699000D01*
D37*
X171400000Y-88709000D02*
X171400000Y-87680000D01*
X174034400Y-92094000D02*
X173383000Y-92094000D01*
D36*
X168176000Y-91100000D02*
X168176000Y-92534800D01*
X172343000Y-99001700D02*
X172350500Y-99009200D01*
X163260000Y-85250000D02*
X163710000Y-84800000D01*
D37*
X194600000Y-89100000D02*
X193094000Y-89100000D01*
X171400000Y-87680000D02*
X171450000Y-87630000D01*
X177263000Y-86385959D02*
X177263000Y-85474000D01*
X193094000Y-89100000D02*
X193040000Y-89154000D01*
X177050000Y-87437500D02*
X177050000Y-86598959D01*
X183462500Y-89350000D02*
X184301041Y-89350000D01*
X181550000Y-95762500D02*
X181550000Y-97514000D01*
X186336000Y-89554000D02*
X186350000Y-89540000D01*
X177050000Y-87437500D02*
X177050000Y-88850000D01*
X169876000Y-87478400D02*
X169875200Y-87477600D01*
D36*
X177513000Y-97524000D02*
X178386000Y-97524000D01*
D37*
X170067000Y-88709000D02*
X169876000Y-88900000D01*
X175137500Y-92350000D02*
X174290400Y-92350000D01*
D36*
X173483000Y-86913000D02*
X173480000Y-86910000D01*
D37*
X184301041Y-89350000D02*
X184505041Y-89554000D01*
D36*
X177263000Y-84994000D02*
X177263000Y-85474000D01*
D37*
X171400000Y-88709000D02*
X170067000Y-88709000D01*
X181550000Y-95762500D02*
X181550000Y-94350000D01*
%TO.N,+3.3VA*%
X174094959Y-93054000D02*
X173383000Y-93054000D01*
X174094959Y-93054000D02*
X174298959Y-92850000D01*
X173303000Y-96045000D02*
X174429500Y-96045000D01*
X174298959Y-92850000D02*
X175137500Y-92850000D01*
X173383000Y-95965000D02*
X173303000Y-96045000D01*
X174429500Y-96045000D02*
X174621000Y-96236500D01*
X173383000Y-93054000D02*
X173383000Y-95965000D01*
%TO.N,/NRST*%
X176869950Y-91850000D02*
X177290000Y-92270050D01*
X175980000Y-94920000D02*
X175980000Y-96951000D01*
X177290000Y-93610000D02*
X175980000Y-94920000D01*
X175980000Y-96951000D02*
X176553000Y-97524000D01*
X175137500Y-91850000D02*
X176869950Y-91850000D01*
X177290000Y-92270050D02*
X177290000Y-93610000D01*
%TO.N,/HSE_IN*%
X175137500Y-90850000D02*
X174298959Y-90850000D01*
X170908000Y-89950000D02*
X169023000Y-89950000D01*
X174298959Y-90850000D02*
X173110959Y-89662000D01*
X171400000Y-89669000D02*
X171189000Y-89669000D01*
X171407000Y-89662000D02*
X171400000Y-89669000D01*
X168176000Y-89103000D02*
X168176000Y-88900000D01*
X173110959Y-89662000D02*
X171407000Y-89662000D01*
X171189000Y-89669000D02*
X170908000Y-89950000D01*
X169023000Y-89950000D02*
X168176000Y-89103000D01*
%TO.N,/HSE_OUT*%
X172810000Y-91350000D02*
X172453000Y-91707000D01*
X172453000Y-91707000D02*
X171400000Y-91707000D01*
X171400000Y-91707000D02*
X171387000Y-91694000D01*
X175137500Y-91350000D02*
X172810000Y-91350000D01*
X170470000Y-91694000D02*
X169876000Y-91100000D01*
X171387000Y-91694000D02*
X170470000Y-91694000D01*
%TO.N,/PWR_LED_K*%
X195900000Y-98025000D02*
X195900000Y-96299600D01*
X195900000Y-96299600D02*
X195933600Y-96266000D01*
D38*
%TO.N,/USB_D-*%
X183462500Y-90850000D02*
X193400000Y-90850001D01*
X193400000Y-90850001D02*
X193700000Y-91000000D01*
X193700000Y-91000000D02*
X194600000Y-91050000D01*
%TO.N,/USB_D+*%
X183512499Y-90399999D02*
X194600000Y-90400000D01*
X183462500Y-90350000D02*
X183512499Y-90399999D01*
D37*
%TO.N,/USART1_TX*%
X173660000Y-80960000D02*
X173660000Y-79200000D01*
X180200000Y-81500000D02*
X174200000Y-81500000D01*
X181000000Y-85100000D02*
X181000000Y-82300000D01*
X174200000Y-81500000D02*
X173660000Y-80960000D01*
X179550000Y-86550000D02*
X181000000Y-85100000D01*
X181000000Y-82300000D02*
X180200000Y-81500000D01*
X179550000Y-87437500D02*
X179550000Y-86550000D01*
%TO.N,/USART1_RX*%
X171120000Y-81220000D02*
X171120000Y-79200000D01*
X180200000Y-82600000D02*
X179800000Y-82200000D01*
X179800000Y-82200000D02*
X172100000Y-82200000D01*
X172100000Y-82200000D02*
X171120000Y-81220000D01*
X179050000Y-85750000D02*
X180200000Y-84600000D01*
X179050000Y-87437500D02*
X179050000Y-85750000D01*
X180200000Y-84600000D02*
X180200000Y-82600000D01*
%TO.N,/SWDIO*%
X182200000Y-89426041D02*
X182200000Y-88626041D01*
X182200000Y-88626041D02*
X189060000Y-81766041D01*
X189060000Y-81766041D02*
X189060000Y-79200000D01*
X182623959Y-89850000D02*
X182200000Y-89426041D01*
X183462500Y-89850000D02*
X182623959Y-89850000D01*
%TO.N,/SWCLK*%
X186520000Y-80780000D02*
X186520000Y-79200000D01*
X182050000Y-85250000D02*
X186520000Y-80780000D01*
X182050000Y-87437500D02*
X182050000Y-85250000D01*
%TO.N,/I2C2_SCL*%
X180550000Y-96700000D02*
X178950000Y-98300000D01*
X176604200Y-98300000D02*
X178950000Y-98300000D01*
X175691800Y-99212400D02*
X176604200Y-98300000D01*
X175690000Y-101310000D02*
X175690000Y-103260000D01*
X180550000Y-95762500D02*
X180550000Y-96700000D01*
X175690000Y-103260000D02*
X175690000Y-105750000D01*
X175690000Y-101310000D02*
X175691800Y-101308200D01*
X175690000Y-105750000D02*
X175740000Y-105800000D01*
X175691800Y-101308200D02*
X175691800Y-99212400D01*
%TO.N,/I2C2_SDA*%
X178910000Y-103590000D02*
X178280000Y-104220000D01*
X178910000Y-103260000D02*
X178910000Y-99151035D01*
X178280000Y-104220000D02*
X178280000Y-105800000D01*
X178910000Y-103260000D02*
X178910000Y-103590000D01*
X178910000Y-99151035D02*
X181050000Y-97011035D01*
X181050000Y-97011035D02*
X181050000Y-95762500D01*
%TO.N,/SW_BOOT0*%
X163260000Y-88250000D02*
X163260000Y-87514200D01*
X163677600Y-87096600D02*
X164439600Y-87096600D01*
X163260000Y-87514200D02*
X163677600Y-87096600D01*
X164439600Y-87096600D02*
X165049200Y-86487000D01*
X165049200Y-86487000D02*
X165049200Y-85854000D01*
%TO.N,/BOOT0*%
X178550000Y-83577827D02*
X178550000Y-87437500D01*
X178021173Y-83049000D02*
X178550000Y-83577827D01*
X166150400Y-83049000D02*
X178021173Y-83049000D01*
X165049200Y-84150200D02*
X166150400Y-83049000D01*
X165049200Y-84834000D02*
X165049200Y-84150200D01*
%TD*%
%TA.AperFunction,Conductor*%
%TO.N,GND*%
G36*
X190927568Y-92678885D02*
G01*
X190941227Y-92689052D01*
X191218698Y-92926884D01*
X191256788Y-92985458D01*
X191262000Y-93021032D01*
X191262000Y-96469200D01*
X191770000Y-96977200D01*
X194258638Y-96977200D01*
X194325677Y-96996885D01*
X194346319Y-97013519D01*
X194527681Y-97194881D01*
X194561166Y-97256204D01*
X194564000Y-97282562D01*
X194564000Y-98195838D01*
X194544315Y-98262877D01*
X194527681Y-98283519D01*
X194346839Y-98464361D01*
X194285516Y-98497846D01*
X194257908Y-98500674D01*
X192064878Y-98478522D01*
X189323593Y-98450832D01*
X189256755Y-98430471D01*
X189247383Y-98423666D01*
X189073338Y-98284430D01*
X189033286Y-98227179D01*
X189026800Y-98187602D01*
X189026800Y-94970600D01*
X188925200Y-94869000D01*
X188327793Y-94869000D01*
X188258935Y-94848124D01*
X188155142Y-94778819D01*
X188110320Y-94725221D01*
X188100000Y-94675695D01*
X188100000Y-93009358D01*
X188119685Y-92942319D01*
X188147250Y-92911965D01*
X188434237Y-92685807D01*
X188499076Y-92659773D01*
X188510987Y-92659200D01*
X190860529Y-92659200D01*
X190927568Y-92678885D01*
G37*
%TD.AperFunction*%
%TD*%
%TA.AperFunction,Conductor*%
%TO.N,VBUS*%
G36*
X193620693Y-91394982D02*
G01*
X193635489Y-91399665D01*
X193693461Y-91438663D01*
X193694393Y-91439896D01*
X193698061Y-91448153D01*
X193777287Y-91527241D01*
X193787758Y-91531870D01*
X193787759Y-91531871D01*
X193871147Y-91568737D01*
X193871149Y-91568738D01*
X193879673Y-91572506D01*
X193905354Y-91575500D01*
X195294646Y-91575500D01*
X195298300Y-91575065D01*
X195298302Y-91575065D01*
X195311603Y-91573482D01*
X195320846Y-91572382D01*
X195324404Y-91570802D01*
X195391394Y-91571965D01*
X195449508Y-91610754D01*
X195477426Y-91674804D01*
X195478400Y-91690318D01*
X195478400Y-91896638D01*
X195458715Y-91963677D01*
X195442081Y-91984319D01*
X195362319Y-92064081D01*
X195300996Y-92097566D01*
X195274638Y-92100400D01*
X188061600Y-92100400D01*
X187731400Y-92456000D01*
X187731400Y-94582322D01*
X187711715Y-94649361D01*
X187686787Y-94677578D01*
X187461087Y-94865661D01*
X187396986Y-94893455D01*
X187381706Y-94894400D01*
X186613800Y-94894400D01*
X186334400Y-95123000D01*
X186334400Y-97405252D01*
X186314715Y-97472291D01*
X186294190Y-97496659D01*
X186065156Y-97706607D01*
X186002436Y-97737397D01*
X185981366Y-97739200D01*
X184760162Y-97739200D01*
X184693123Y-97719515D01*
X184672481Y-97702881D01*
X184440319Y-97470719D01*
X184406834Y-97409396D01*
X184404000Y-97383038D01*
X184404000Y-95412247D01*
X184423685Y-95345208D01*
X184451871Y-95314367D01*
X184827617Y-95022120D01*
X184892620Y-94996500D01*
X184903746Y-94996000D01*
X185623200Y-94996000D01*
X185982262Y-94691121D01*
X185978800Y-92506800D01*
X185978800Y-91790671D01*
X185998485Y-91723632D01*
X186008652Y-91709973D01*
X186246484Y-91432502D01*
X186305058Y-91394412D01*
X186340632Y-91389200D01*
X193583272Y-91389200D01*
X193620693Y-91394982D01*
G37*
%TD.AperFunction*%
%TD*%
%TA.AperFunction,Conductor*%
%TO.N,+3.3V*%
G36*
X188491542Y-95218885D02*
G01*
X188501965Y-95226372D01*
X188675462Y-95365170D01*
X188715514Y-95422421D01*
X188722000Y-95461998D01*
X188722000Y-98755200D01*
X188976000Y-98958400D01*
X193250503Y-98958400D01*
X193317542Y-98978085D01*
X193327965Y-98985572D01*
X193501462Y-99124370D01*
X193541514Y-99181621D01*
X193548000Y-99221198D01*
X193548000Y-103533261D01*
X193528315Y-103600300D01*
X193515753Y-103616672D01*
X193076899Y-104099411D01*
X193017238Y-104135775D01*
X192985146Y-104140000D01*
X185669071Y-104140000D01*
X185602032Y-104120315D01*
X185588373Y-104110148D01*
X185310902Y-103872316D01*
X185272812Y-103813742D01*
X185267600Y-103778168D01*
X185267600Y-99386963D01*
X185287285Y-99319924D01*
X185331380Y-99278568D01*
X186623614Y-98560660D01*
X186623616Y-98560658D01*
X186639200Y-98552000D01*
X186639200Y-95511278D01*
X186658885Y-95444239D01*
X186683813Y-95416022D01*
X186909513Y-95227939D01*
X186973614Y-95200145D01*
X186988894Y-95199200D01*
X188424503Y-95199200D01*
X188491542Y-95218885D01*
G37*
%TD.AperFunction*%
%TD*%
M02*
