M48
; DRILL file {KiCad (6.0.9)} date Sat 17 Dec 2022 11:29:50 PM CST
; FORMAT={-:-/ absolute / metric / decimal}
; #@! TF.CreationDate,2022-12-17T23:29:50-06:00
; #@! TF.GenerationSoftware,Kicad,Pcbnew,(6.0.9)
; #@! TF.FileFunction,MixedPlating,1,2
FMAT,2
METRIC
; #@! TA.AperFunction,Plated,PTH,ViaDrill
T1C0.300
; #@! TA.AperFunction,Plated,PTH,ViaDrill
T2C0.400
; #@! TA.AperFunction,Plated,PTH,ComponentDrill
T3C0.550
; #@! TA.AperFunction,Plated,PTH,ComponentDrill
T4C0.850
; #@! TA.AperFunction,Plated,PTH,ComponentDrill
T5C1.000
; #@! TA.AperFunction,NonPlated,NPTH,ComponentDrill
T6C0.800
; #@! TA.AperFunction,NonPlated,NPTH,ComponentDrill
T7C0.900
; #@! TA.AperFunction,NonPlated,NPTH,ComponentDrill
T8C2.200
%
G90
G05
T1
X163.71Y-84.26
X173.48Y-86.91
X177.06Y-88.86
X178.47Y-97.44
X181.54Y-94.34
X186.35Y-89.54
T2
X168.199Y-92.558
X169.875Y-87.478
X171.45Y-87.63
X172.339Y-95.072
X172.35Y-99.009
X172.466Y-90.678
X174.94Y-104.216
X176.439Y-104.216
X176.451Y-92.599
X178.16Y-101.956
X179.68Y-101.981
X189.484Y-98.044
X190.246Y-93.472
X190.246Y-94.488
X190.5Y-98.044
X193.04Y-89.154
X194.056Y-96.266
X194.056Y-97.765
T5
X168.58Y-79.2
X171.12Y-79.2
X173.2Y-105.8
X173.66Y-79.2
X175.74Y-105.8
X176.2Y-79.2
X178.28Y-105.8
X180.82Y-105.8
X183.98Y-79.2
X186.52Y-79.2
X189.06Y-79.2
X191.6Y-79.2
T6
X195.7Y-87.9
X195.7Y-92.9
T7
X161.5Y-86.0
X161.5Y-89.0
T8
X162.4Y-80.0
X162.4Y-105.0
X197.4Y-80.0
X197.4Y-105.0
T3
G00X198.125Y-86.525
M15
G01X198.775Y-86.525
M16
G05
G00X198.125Y-94.275
M15
G01X198.775Y-94.275
M16
G05
T4
G00X194.375Y-86.675
M15
G01X194.925Y-86.675
M16
G05
G00X194.375Y-94.125
M15
G01X194.925Y-94.125
M16
G05
T0
M30
