%TF.GenerationSoftware,KiCad,Pcbnew,(6.0.9)*%
%TF.CreationDate,2022-12-17T23:06:55-06:00*%
%TF.ProjectId,STM32_Bluepill,53544d33-325f-4426-9c75-6570696c6c2e,A*%
%TF.SameCoordinates,Original*%
%TF.FileFunction,Soldermask,Top*%
%TF.FilePolarity,Negative*%
%FSLAX46Y46*%
G04 Gerber Fmt 4.6, Leading zero omitted, Abs format (unit mm)*
G04 Created by KiCad (PCBNEW (6.0.9)) date 2022-12-17 23:06:55*
%MOMM*%
%LPD*%
G01*
G04 APERTURE LIST*
G04 Aperture macros list*
%AMRoundRect*
0 Rectangle with rounded corners*
0 $1 Rounding radius*
0 $2 $3 $4 $5 $6 $7 $8 $9 X,Y pos of 4 corners*
0 Add a 4 corners polygon primitive as box body*
4,1,4,$2,$3,$4,$5,$6,$7,$8,$9,$2,$3,0*
0 Add four circle primitives for the rounded corners*
1,1,$1+$1,$2,$3*
1,1,$1+$1,$4,$5*
1,1,$1+$1,$6,$7*
1,1,$1+$1,$8,$9*
0 Add four rect primitives between the rounded corners*
20,1,$1+$1,$2,$3,$4,$5,0*
20,1,$1+$1,$4,$5,$6,$7,0*
20,1,$1+$1,$6,$7,$8,$9,0*
20,1,$1+$1,$8,$9,$2,$3,0*%
G04 Aperture macros list end*
%ADD10RoundRect,0.125800X-0.662500X-0.075000X0.662500X-0.075000X0.662500X0.075000X-0.662500X0.075000X0*%
%ADD11RoundRect,0.125800X-0.075000X-0.662500X0.075000X-0.662500X0.075000X0.662500X-0.075000X0.662500X0*%
%ADD12RoundRect,0.050800X-0.850000X0.850000X-0.850000X-0.850000X0.850000X-0.850000X0.850000X0.850000X0*%
%ADD13O,1.801600X1.801600*%
%ADD14RoundRect,0.185800X-0.135000X-0.185000X0.135000X-0.185000X0.135000X0.185000X-0.135000X0.185000X0*%
%ADD15O,0.901600X0.901600*%
%ADD16RoundRect,0.050800X0.650000X-0.225000X0.650000X0.225000X-0.650000X0.225000X-0.650000X-0.225000X0*%
%ADD17O,2.101600X1.551600*%
%ADD18O,1.901600X1.251600*%
%ADD19RoundRect,0.190800X0.170000X-0.140000X0.170000X0.140000X-0.170000X0.140000X-0.170000X-0.140000X0*%
%ADD20C,2.301600*%
%ADD21C,1.001600*%
%ADD22RoundRect,0.050800X-0.400000X0.500000X-0.400000X-0.500000X0.400000X-0.500000X0.400000X0.500000X0*%
%ADD23RoundRect,0.050800X-0.750000X0.350000X-0.750000X-0.350000X0.750000X-0.350000X0.750000X0.350000X0*%
%ADD24RoundRect,0.300800X0.475000X-0.250000X0.475000X0.250000X-0.475000X0.250000X-0.475000X-0.250000X0*%
%ADD25RoundRect,0.190800X0.140000X0.170000X-0.140000X0.170000X-0.140000X-0.170000X0.140000X-0.170000X0*%
%ADD26RoundRect,0.050800X0.850000X-0.850000X0.850000X0.850000X-0.850000X0.850000X-0.850000X-0.850000X0*%
%ADD27RoundRect,0.050800X-0.750000X1.000000X-0.750000X-1.000000X0.750000X-1.000000X0.750000X1.000000X0*%
%ADD28RoundRect,0.050800X-1.900000X1.000000X-1.900000X-1.000000X1.900000X-1.000000X1.900000X1.000000X0*%
%ADD29RoundRect,0.275800X-0.225000X-0.250000X0.225000X-0.250000X0.225000X0.250000X-0.225000X0.250000X0*%
%ADD30RoundRect,0.190800X-0.170000X0.140000X-0.170000X-0.140000X0.170000X-0.140000X0.170000X0.140000X0*%
%ADD31RoundRect,0.269550X-0.256250X0.218750X-0.256250X-0.218750X0.256250X-0.218750X0.256250X0.218750X0*%
%ADD32RoundRect,0.185800X0.135000X0.185000X-0.135000X0.185000X-0.135000X-0.185000X0.135000X-0.185000X0*%
%ADD33RoundRect,0.050800X-0.600000X0.700000X-0.600000X-0.700000X0.600000X-0.700000X0.600000X0.700000X0*%
%ADD34RoundRect,0.190800X-0.140000X-0.170000X0.140000X-0.170000X0.140000X0.170000X-0.140000X0.170000X0*%
%ADD35RoundRect,0.185800X0.185000X-0.135000X0.185000X0.135000X-0.185000X0.135000X-0.185000X-0.135000X0*%
%ADD36RoundRect,0.185800X-0.185000X0.135000X-0.185000X-0.135000X0.185000X-0.135000X0.185000X0.135000X0*%
%ADD37RoundRect,0.300800X-0.250000X-0.475000X0.250000X-0.475000X0.250000X0.475000X-0.250000X0.475000X0*%
G04 APERTURE END LIST*
D10*
%TO.C,U1*%
X175137500Y-88850000D03*
X175137500Y-89350000D03*
X175137500Y-89850000D03*
X175137500Y-90350000D03*
X175137500Y-90850000D03*
X175137500Y-91350000D03*
X175137500Y-91850000D03*
X175137500Y-92350000D03*
X175137500Y-92850000D03*
X175137500Y-93350000D03*
X175137500Y-93850000D03*
X175137500Y-94350000D03*
D11*
X176550000Y-95762500D03*
X177050000Y-95762500D03*
X177550000Y-95762500D03*
X178050000Y-95762500D03*
X178550000Y-95762500D03*
X179050000Y-95762500D03*
X179550000Y-95762500D03*
X180050000Y-95762500D03*
X180550000Y-95762500D03*
X181050000Y-95762500D03*
X181550000Y-95762500D03*
X182050000Y-95762500D03*
D10*
X183462500Y-94350000D03*
X183462500Y-93850000D03*
X183462500Y-93350000D03*
X183462500Y-92850000D03*
X183462500Y-92350000D03*
X183462500Y-91850000D03*
X183462500Y-91350000D03*
X183462500Y-90850000D03*
X183462500Y-90350000D03*
X183462500Y-89850000D03*
X183462500Y-89350000D03*
X183462500Y-88850000D03*
D11*
X182050000Y-87437500D03*
X181550000Y-87437500D03*
X181050000Y-87437500D03*
X180550000Y-87437500D03*
X180050000Y-87437500D03*
X179550000Y-87437500D03*
X179050000Y-87437500D03*
X178550000Y-87437500D03*
X178050000Y-87437500D03*
X177550000Y-87437500D03*
X177050000Y-87437500D03*
X176550000Y-87437500D03*
%TD*%
D12*
%TO.C,J2*%
X176200000Y-79200000D03*
D13*
X173660000Y-79200000D03*
X171120000Y-79200000D03*
X168580000Y-79200000D03*
%TD*%
D14*
%TO.C,R5*%
X195933600Y-96266000D03*
X196953600Y-96266000D03*
%TD*%
D15*
%TO.C,J1*%
X195700000Y-87900000D03*
X195700000Y-92900000D03*
D16*
X194600000Y-91700000D03*
X194600000Y-91050000D03*
X194600000Y-90400000D03*
X194600000Y-89750000D03*
X194600000Y-89100000D03*
D17*
X194650000Y-94125000D03*
D18*
X198450000Y-86525000D03*
D17*
X194650000Y-86675000D03*
D18*
X198450000Y-94275000D03*
%TD*%
D19*
%TO.C,C2*%
X173483000Y-88854000D03*
X173483000Y-87894000D03*
%TD*%
D20*
%TO.C,H4*%
X162400000Y-80000000D03*
%TD*%
D21*
%TO.C,SW_1*%
X161500000Y-89000000D03*
D22*
X160400000Y-83850000D03*
D21*
X161500000Y-86000000D03*
D22*
X162610000Y-83850000D03*
X160400000Y-91150000D03*
X162610000Y-91150000D03*
D23*
X163260000Y-85250000D03*
X163260000Y-88250000D03*
X163260000Y-89750000D03*
%TD*%
D24*
%TO.C,C13*%
X192600000Y-99700000D03*
X192600000Y-97800000D03*
%TD*%
D25*
%TO.C,C7*%
X173303000Y-96045000D03*
X172343000Y-96045000D03*
%TD*%
%TO.C,C8*%
X173303000Y-98024000D03*
X172343000Y-98024000D03*
%TD*%
D26*
%TO.C,J4*%
X173200000Y-105800000D03*
D13*
X175740000Y-105800000D03*
X178280000Y-105800000D03*
X180820000Y-105800000D03*
%TD*%
D19*
%TO.C,C10*%
X171400000Y-89669000D03*
X171400000Y-88709000D03*
%TD*%
D27*
%TO.C,U2*%
X190000000Y-96450000D03*
X187700000Y-96450000D03*
D28*
X187700000Y-102750000D03*
D27*
X185400000Y-96450000D03*
%TD*%
D29*
%TO.C,C1*%
X176008000Y-83874000D03*
X177558000Y-83874000D03*
%TD*%
D30*
%TO.C,C4*%
X185183000Y-88594000D03*
X185183000Y-89554000D03*
%TD*%
D31*
%TO.C,FB1*%
X174621000Y-96236500D03*
X174621000Y-97811500D03*
%TD*%
D32*
%TO.C,R3*%
X176710000Y-103260000D03*
X175690000Y-103260000D03*
%TD*%
D33*
%TO.C,Y1*%
X168176000Y-88900000D03*
X168176000Y-91100000D03*
X169876000Y-91100000D03*
X169876000Y-88900000D03*
%TD*%
D12*
%TO.C,J3*%
X191600000Y-79200000D03*
D13*
X189060000Y-79200000D03*
X186520000Y-79200000D03*
X183980000Y-79200000D03*
%TD*%
D20*
%TO.C,H3*%
X197400000Y-80000000D03*
%TD*%
D34*
%TO.C,C5*%
X176303000Y-85474000D03*
X177263000Y-85474000D03*
%TD*%
D19*
%TO.C,C6*%
X173383000Y-93054000D03*
X173383000Y-92094000D03*
%TD*%
D34*
%TO.C,C9*%
X176553000Y-97524000D03*
X177513000Y-97524000D03*
%TD*%
D20*
%TO.C,H2*%
X197400000Y-105000000D03*
%TD*%
D35*
%TO.C,R1*%
X165049200Y-85854000D03*
X165049200Y-84834000D03*
%TD*%
D19*
%TO.C,C11*%
X171400000Y-91707000D03*
X171400000Y-90747000D03*
%TD*%
D36*
%TO.C,R2*%
X188300000Y-89080000D03*
X188300000Y-90100000D03*
%TD*%
D37*
%TO.C,C12*%
X186950000Y-93900000D03*
X188850000Y-93900000D03*
%TD*%
D31*
%TO.C,D1*%
X195900000Y-98025000D03*
X195900000Y-99600000D03*
%TD*%
D25*
%TO.C,C3*%
X182500000Y-97524000D03*
X181540000Y-97524000D03*
%TD*%
D20*
%TO.C,H1*%
X162400000Y-105000000D03*
%TD*%
D14*
%TO.C,R4*%
X177890000Y-103260000D03*
X178910000Y-103260000D03*
%TD*%
M02*
