%TF.GenerationSoftware,KiCad,Pcbnew,(6.0.9)*%
%TF.CreationDate,2022-12-17T23:29:56-06:00*%
%TF.ProjectId,STM32_Bluepill,53544d33-325f-4426-9c75-6570696c6c2e,A*%
%TF.SameCoordinates,Original*%
%TF.FileFunction,Legend,Top*%
%TF.FilePolarity,Positive*%
%FSLAX46Y46*%
G04 Gerber Fmt 4.6, Leading zero omitted, Abs format (unit mm)*
G04 Created by KiCad (PCBNEW (6.0.9)) date 2022-12-17 23:29:56*
%MOMM*%
%LPD*%
G01*
G04 APERTURE LIST*
%ADD10C,0.150000*%
%ADD11C,0.050000*%
%ADD12C,0.100000*%
%ADD13C,0.300000*%
%ADD14C,0.120000*%
G04 APERTURE END LIST*
D10*
X165000000Y-87000000D02*
X165000000Y-89000000D01*
D11*
X194868800Y-98679000D02*
X194868800Y-98526600D01*
G36*
X193925000Y-92050000D02*
G01*
X193825000Y-92050000D01*
X193825000Y-91950000D01*
X193925000Y-92050000D01*
G37*
X193925000Y-92050000D02*
X193825000Y-92050000D01*
X193825000Y-91950000D01*
X193925000Y-92050000D01*
D10*
X165000000Y-89000000D02*
X165500000Y-88500000D01*
D11*
G36*
X192800000Y-78100000D02*
G01*
X192700000Y-78000000D01*
X192800000Y-78000000D01*
X192800000Y-78100000D01*
G37*
X192800000Y-78100000D02*
X192700000Y-78000000D01*
X192800000Y-78000000D01*
X192800000Y-78100000D01*
D10*
X194792600Y-98882200D02*
X194868800Y-98856800D01*
D11*
X194868800Y-99136200D02*
X194868800Y-98679000D01*
D12*
X194716400Y-98933000D02*
X194970400Y-98933000D01*
D11*
G36*
X172100000Y-107000000D02*
G01*
X172000000Y-107000000D01*
X172000000Y-106900000D01*
X172100000Y-107000000D01*
G37*
X172100000Y-107000000D02*
X172000000Y-107000000D01*
X172000000Y-106900000D01*
X172100000Y-107000000D01*
D10*
X165000000Y-89000000D02*
X164500000Y-88500000D01*
D11*
G36*
X175800000Y-88200000D02*
G01*
X175800000Y-88100000D01*
X175900000Y-88100000D01*
X175800000Y-88200000D01*
G37*
X175800000Y-88200000D02*
X175800000Y-88100000D01*
X175900000Y-88100000D01*
X175800000Y-88200000D01*
X194691000Y-98628200D02*
X195046600Y-98628200D01*
G36*
X171825000Y-90050000D02*
G01*
X171725000Y-90050000D01*
X171825000Y-89950000D01*
X171825000Y-90050000D01*
G37*
X171825000Y-90050000D02*
X171725000Y-90050000D01*
X171825000Y-89950000D01*
X171825000Y-90050000D01*
G36*
X167487500Y-88212500D02*
G01*
X167487500Y-88112500D01*
X167587500Y-88112500D01*
X167487500Y-88212500D01*
G37*
X167487500Y-88212500D02*
X167487500Y-88112500D01*
X167587500Y-88112500D01*
X167487500Y-88212500D01*
G36*
X191250000Y-95350000D02*
G01*
X191150000Y-95250000D01*
X191250000Y-95250000D01*
X191250000Y-95350000D01*
G37*
X191250000Y-95350000D02*
X191150000Y-95250000D01*
X191250000Y-95250000D01*
X191250000Y-95350000D01*
G36*
X171825000Y-92100000D02*
G01*
X171725000Y-92100000D01*
X171825000Y-92000000D01*
X171825000Y-92100000D01*
G37*
X171825000Y-92100000D02*
X171725000Y-92100000D01*
X171825000Y-92000000D01*
X171825000Y-92100000D01*
D10*
X164500000Y-88500000D02*
X165000000Y-89000000D01*
D11*
G36*
X177400000Y-78100000D02*
G01*
X177300000Y-78000000D01*
X177400000Y-78000000D01*
X177400000Y-78100000D01*
G37*
X177400000Y-78100000D02*
X177300000Y-78000000D01*
X177400000Y-78000000D01*
X177400000Y-78100000D01*
D12*
X195021200Y-98933000D02*
X194868800Y-98679000D01*
X194970400Y-98933000D02*
X195021200Y-98933000D01*
X194868800Y-98679000D02*
X194716400Y-98933000D01*
D10*
X169076809Y-106370380D02*
X169076809Y-105370380D01*
X169505380Y-105465619D02*
X169553000Y-105418000D01*
X169648238Y-105370380D01*
X169886333Y-105370380D01*
X169981571Y-105418000D01*
X170029190Y-105465619D01*
X170076809Y-105560857D01*
X170076809Y-105656095D01*
X170029190Y-105798952D01*
X169457761Y-106370380D01*
X170076809Y-106370380D01*
X171076809Y-106275142D02*
X171029190Y-106322761D01*
X170886333Y-106370380D01*
X170791095Y-106370380D01*
X170648238Y-106322761D01*
X170553000Y-106227523D01*
X170505380Y-106132285D01*
X170457761Y-105941809D01*
X170457761Y-105798952D01*
X170505380Y-105608476D01*
X170553000Y-105513238D01*
X170648238Y-105418000D01*
X170791095Y-105370380D01*
X170886333Y-105370380D01*
X171029190Y-105418000D01*
X171076809Y-105465619D01*
X165285714Y-90452380D02*
X164714285Y-90452380D01*
X165000000Y-90452380D02*
X165000000Y-89452380D01*
X164904761Y-89595238D01*
X164809523Y-89690476D01*
X164714285Y-89738095D01*
D11*
X180697619Y-104100000D02*
X180678571Y-104090476D01*
X180650000Y-104090476D01*
X180621428Y-104100000D01*
X180602380Y-104119047D01*
X180592857Y-104138095D01*
X180583333Y-104176190D01*
X180583333Y-104204761D01*
X180592857Y-104242857D01*
X180602380Y-104261904D01*
X180621428Y-104280952D01*
X180650000Y-104290476D01*
X180669047Y-104290476D01*
X180697619Y-104280952D01*
X180707142Y-104271428D01*
X180707142Y-104204761D01*
X180669047Y-104204761D01*
X180792857Y-104290476D02*
X180792857Y-104090476D01*
X180907142Y-104290476D01*
X180907142Y-104090476D01*
X181002380Y-104290476D02*
X181002380Y-104090476D01*
X181050000Y-104090476D01*
X181078571Y-104100000D01*
X181097619Y-104119047D01*
X181107142Y-104138095D01*
X181116666Y-104176190D01*
X181116666Y-104204761D01*
X181107142Y-104242857D01*
X181097619Y-104261904D01*
X181078571Y-104280952D01*
X181050000Y-104290476D01*
X181002380Y-104290476D01*
X175977580Y-80713276D02*
X176101390Y-80713276D01*
X176034723Y-80789466D01*
X176063295Y-80789466D01*
X176082342Y-80798990D01*
X176091866Y-80808514D01*
X176101390Y-80827561D01*
X176101390Y-80875180D01*
X176091866Y-80894228D01*
X176082342Y-80903752D01*
X176063295Y-80913276D01*
X176006152Y-80913276D01*
X175987104Y-80903752D01*
X175977580Y-80894228D01*
X176158533Y-80713276D02*
X176225200Y-80913276D01*
X176291866Y-80713276D01*
X176339485Y-80713276D02*
X176463295Y-80713276D01*
X176396628Y-80789466D01*
X176425200Y-80789466D01*
X176444247Y-80798990D01*
X176453771Y-80808514D01*
X176463295Y-80827561D01*
X176463295Y-80875180D01*
X176453771Y-80894228D01*
X176444247Y-80903752D01*
X176425200Y-80913276D01*
X176368057Y-80913276D01*
X176349009Y-80903752D01*
X176339485Y-80894228D01*
X191352380Y-80740476D02*
X191476190Y-80740476D01*
X191409523Y-80816666D01*
X191438095Y-80816666D01*
X191457142Y-80826190D01*
X191466666Y-80835714D01*
X191476190Y-80854761D01*
X191476190Y-80902380D01*
X191466666Y-80921428D01*
X191457142Y-80930952D01*
X191438095Y-80940476D01*
X191380952Y-80940476D01*
X191361904Y-80930952D01*
X191352380Y-80921428D01*
X191533333Y-80740476D02*
X191600000Y-80940476D01*
X191666666Y-80740476D01*
X191714285Y-80740476D02*
X191838095Y-80740476D01*
X191771428Y-80816666D01*
X191800000Y-80816666D01*
X191819047Y-80826190D01*
X191828571Y-80835714D01*
X191838095Y-80854761D01*
X191838095Y-80902380D01*
X191828571Y-80921428D01*
X191819047Y-80930952D01*
X191800000Y-80940476D01*
X191742857Y-80940476D01*
X191723809Y-80930952D01*
X191714285Y-80921428D01*
D10*
X160313857Y-92638571D02*
X160456714Y-92686190D01*
X160504333Y-92733809D01*
X160551952Y-92829047D01*
X160551952Y-92971904D01*
X160504333Y-93067142D01*
X160456714Y-93114761D01*
X160361476Y-93162380D01*
X159980523Y-93162380D01*
X159980523Y-92162380D01*
X160313857Y-92162380D01*
X160409095Y-92210000D01*
X160456714Y-92257619D01*
X160504333Y-92352857D01*
X160504333Y-92448095D01*
X160456714Y-92543333D01*
X160409095Y-92590952D01*
X160313857Y-92638571D01*
X159980523Y-92638571D01*
X161171000Y-92162380D02*
X161361476Y-92162380D01*
X161456714Y-92210000D01*
X161551952Y-92305238D01*
X161599571Y-92495714D01*
X161599571Y-92829047D01*
X161551952Y-93019523D01*
X161456714Y-93114761D01*
X161361476Y-93162380D01*
X161171000Y-93162380D01*
X161075761Y-93114761D01*
X160980523Y-93019523D01*
X160932904Y-92829047D01*
X160932904Y-92495714D01*
X160980523Y-92305238D01*
X161075761Y-92210000D01*
X161171000Y-92162380D01*
X162218619Y-92162380D02*
X162409095Y-92162380D01*
X162504333Y-92210000D01*
X162599571Y-92305238D01*
X162647190Y-92495714D01*
X162647190Y-92829047D01*
X162599571Y-93019523D01*
X162504333Y-93114761D01*
X162409095Y-93162380D01*
X162218619Y-93162380D01*
X162123380Y-93114761D01*
X162028142Y-93019523D01*
X161980523Y-92829047D01*
X161980523Y-92495714D01*
X162028142Y-92305238D01*
X162123380Y-92210000D01*
X162218619Y-92162380D01*
X162932904Y-92162380D02*
X163504333Y-92162380D01*
X163218619Y-93162380D02*
X163218619Y-92162380D01*
X181989361Y-80579742D02*
X182036980Y-80436885D01*
X182036980Y-80198790D01*
X181989361Y-80103552D01*
X181941742Y-80055933D01*
X181846504Y-80008314D01*
X181751266Y-80008314D01*
X181656028Y-80055933D01*
X181608409Y-80103552D01*
X181560790Y-80198790D01*
X181513171Y-80389266D01*
X181465552Y-80484504D01*
X181417933Y-80532123D01*
X181322695Y-80579742D01*
X181227457Y-80579742D01*
X181132219Y-80532123D01*
X181084600Y-80484504D01*
X181036980Y-80389266D01*
X181036980Y-80151171D01*
X181084600Y-80008314D01*
X181036980Y-79674980D02*
X182036980Y-79436885D01*
X181322695Y-79246409D01*
X182036980Y-79055933D01*
X181036980Y-78817838D01*
X182036980Y-78436885D02*
X181036980Y-78436885D01*
X181036980Y-78198790D01*
X181084600Y-78055933D01*
X181179838Y-77960695D01*
X181275076Y-77913076D01*
X181465552Y-77865457D01*
X181608409Y-77865457D01*
X181798885Y-77913076D01*
X181894123Y-77960695D01*
X181989361Y-78055933D01*
X182036980Y-78198790D01*
X182036980Y-78436885D01*
D11*
X173532819Y-80713276D02*
X173647104Y-80713276D01*
X173589961Y-80913276D02*
X173589961Y-80713276D01*
X173694723Y-80713276D02*
X173828057Y-80913276D01*
X173828057Y-80713276D02*
X173694723Y-80913276D01*
X171066666Y-80938676D02*
X171000000Y-80843438D01*
X170952380Y-80938676D02*
X170952380Y-80738676D01*
X171028571Y-80738676D01*
X171047619Y-80748200D01*
X171057142Y-80757723D01*
X171066666Y-80776771D01*
X171066666Y-80805342D01*
X171057142Y-80824390D01*
X171047619Y-80833914D01*
X171028571Y-80843438D01*
X170952380Y-80843438D01*
X171133333Y-80738676D02*
X171266666Y-80938676D01*
X171266666Y-80738676D02*
X171133333Y-80938676D01*
D13*
X180469364Y-83542914D02*
X180633650Y-83600057D01*
X180919364Y-83600057D01*
X181040792Y-83542914D01*
X181105078Y-83485771D01*
X181176507Y-83371485D01*
X181190792Y-83257200D01*
X181147935Y-83142914D01*
X181097935Y-83085771D01*
X180990792Y-83028628D01*
X180769364Y-82971485D01*
X180662221Y-82914342D01*
X180612221Y-82857200D01*
X180569364Y-82742914D01*
X180583650Y-82628628D01*
X180655078Y-82514342D01*
X180719364Y-82457200D01*
X180840792Y-82400057D01*
X181126507Y-82400057D01*
X181290792Y-82457200D01*
X181640792Y-82400057D02*
X182326507Y-82400057D01*
X181833650Y-83600057D02*
X181983650Y-82400057D01*
X182576507Y-83600057D02*
X182726507Y-82400057D01*
X183019364Y-83257200D01*
X183526507Y-82400057D01*
X183376507Y-83600057D01*
X183983650Y-82400057D02*
X184726507Y-82400057D01*
X184269364Y-82857200D01*
X184440792Y-82857200D01*
X184547935Y-82914342D01*
X184597935Y-82971485D01*
X184640792Y-83085771D01*
X184605078Y-83371485D01*
X184533650Y-83485771D01*
X184469364Y-83542914D01*
X184347935Y-83600057D01*
X184005078Y-83600057D01*
X183897935Y-83542914D01*
X183847935Y-83485771D01*
X185169364Y-82514342D02*
X185233650Y-82457200D01*
X185355078Y-82400057D01*
X185640792Y-82400057D01*
X185747935Y-82457200D01*
X185797935Y-82514342D01*
X185840792Y-82628628D01*
X185826507Y-82742914D01*
X185747935Y-82914342D01*
X184976507Y-83600057D01*
X185719364Y-83600057D01*
X187626507Y-82971485D02*
X187790792Y-83028628D01*
X187840792Y-83085771D01*
X187883650Y-83200057D01*
X187862221Y-83371485D01*
X187790792Y-83485771D01*
X187726507Y-83542914D01*
X187605078Y-83600057D01*
X187147935Y-83600057D01*
X187297935Y-82400057D01*
X187697935Y-82400057D01*
X187805078Y-82457200D01*
X187855078Y-82514342D01*
X187897935Y-82628628D01*
X187883650Y-82742914D01*
X187812221Y-82857200D01*
X187747935Y-82914342D01*
X187626507Y-82971485D01*
X187226507Y-82971485D01*
X188519364Y-83600057D02*
X188412221Y-83542914D01*
X188369364Y-83428628D01*
X188497935Y-82400057D01*
X189590792Y-82800057D02*
X189490792Y-83600057D01*
X189076507Y-82800057D02*
X188997935Y-83428628D01*
X189040792Y-83542914D01*
X189147935Y-83600057D01*
X189319364Y-83600057D01*
X189440792Y-83542914D01*
X189505078Y-83485771D01*
X190526507Y-83542914D02*
X190405078Y-83600057D01*
X190176507Y-83600057D01*
X190069364Y-83542914D01*
X190026507Y-83428628D01*
X190083650Y-82971485D01*
X190155078Y-82857200D01*
X190276507Y-82800057D01*
X190505078Y-82800057D01*
X190612221Y-82857200D01*
X190655078Y-82971485D01*
X190640792Y-83085771D01*
X190055078Y-83200057D01*
X192005078Y-83600057D02*
X192155078Y-82400057D01*
X192612221Y-82400057D01*
X192719364Y-82457200D01*
X192769364Y-82514342D01*
X192812221Y-82628628D01*
X192790792Y-82800057D01*
X192719364Y-82914342D01*
X192655078Y-82971485D01*
X192533650Y-83028628D01*
X192076507Y-83028628D01*
X193205078Y-83600057D02*
X193305078Y-82800057D01*
X193355078Y-82400057D02*
X193290792Y-82457200D01*
X193340792Y-82514342D01*
X193405078Y-82457200D01*
X193355078Y-82400057D01*
X193340792Y-82514342D01*
X193947935Y-83600057D02*
X193840792Y-83542914D01*
X193797935Y-83428628D01*
X193926507Y-82400057D01*
X194576507Y-83600057D02*
X194469364Y-83542914D01*
X194426507Y-83428628D01*
X194555078Y-82400057D01*
X184747935Y-85989200D02*
X184697935Y-85932057D01*
X184605078Y-85760628D01*
X184562221Y-85646342D01*
X184526507Y-85474914D01*
X184505078Y-85189200D01*
X184533650Y-84960628D01*
X184626507Y-84674914D01*
X184705078Y-84503485D01*
X184776507Y-84389200D01*
X184912221Y-84217771D01*
X184976507Y-84160628D01*
X185962221Y-85417771D02*
X185897935Y-85474914D01*
X185719364Y-85532057D01*
X185605078Y-85532057D01*
X185440792Y-85474914D01*
X185340792Y-85360628D01*
X185297935Y-85246342D01*
X185269364Y-85017771D01*
X185290792Y-84846342D01*
X185376507Y-84617771D01*
X185447935Y-84503485D01*
X185576507Y-84389200D01*
X185755078Y-84332057D01*
X185869364Y-84332057D01*
X186033650Y-84389200D01*
X186083650Y-84446342D01*
X186633650Y-85532057D02*
X186526507Y-85474914D01*
X186483650Y-85360628D01*
X186612221Y-84332057D01*
X187262221Y-85532057D02*
X187155078Y-85474914D01*
X187105078Y-85417771D01*
X187062221Y-85303485D01*
X187105078Y-84960628D01*
X187176507Y-84846342D01*
X187240792Y-84789200D01*
X187362221Y-84732057D01*
X187533650Y-84732057D01*
X187640792Y-84789200D01*
X187690792Y-84846342D01*
X187733650Y-84960628D01*
X187690792Y-85303485D01*
X187619364Y-85417771D01*
X187555078Y-85474914D01*
X187433650Y-85532057D01*
X187262221Y-85532057D01*
X188276507Y-84732057D02*
X188176507Y-85532057D01*
X188262221Y-84846342D02*
X188326507Y-84789200D01*
X188447935Y-84732057D01*
X188619364Y-84732057D01*
X188726507Y-84789200D01*
X188769364Y-84903485D01*
X188690792Y-85532057D01*
X189726507Y-85474914D02*
X189605078Y-85532057D01*
X189376507Y-85532057D01*
X189269364Y-85474914D01*
X189226507Y-85360628D01*
X189283650Y-84903485D01*
X189355078Y-84789200D01*
X189476507Y-84732057D01*
X189705078Y-84732057D01*
X189812221Y-84789200D01*
X189855078Y-84903485D01*
X189840792Y-85017771D01*
X189255078Y-85132057D01*
X190119364Y-85989200D02*
X190183650Y-85932057D01*
X190319364Y-85760628D01*
X190390792Y-85646342D01*
X190469364Y-85474914D01*
X190562221Y-85189200D01*
X190590792Y-84960628D01*
X190569364Y-84674914D01*
X190533650Y-84503485D01*
X190490792Y-84389200D01*
X190397935Y-84217771D01*
X190347935Y-84160628D01*
D11*
X183847619Y-80750000D02*
X183828571Y-80740476D01*
X183800000Y-80740476D01*
X183771428Y-80750000D01*
X183752380Y-80769047D01*
X183742857Y-80788095D01*
X183733333Y-80826190D01*
X183733333Y-80854761D01*
X183742857Y-80892857D01*
X183752380Y-80911904D01*
X183771428Y-80930952D01*
X183800000Y-80940476D01*
X183819047Y-80940476D01*
X183847619Y-80930952D01*
X183857142Y-80921428D01*
X183857142Y-80854761D01*
X183819047Y-80854761D01*
X183942857Y-80940476D02*
X183942857Y-80740476D01*
X184057142Y-80940476D01*
X184057142Y-80740476D01*
X184152380Y-80940476D02*
X184152380Y-80740476D01*
X184200000Y-80740476D01*
X184228571Y-80750000D01*
X184247619Y-80769047D01*
X184257142Y-80788095D01*
X184266666Y-80826190D01*
X184266666Y-80854761D01*
X184257142Y-80892857D01*
X184247619Y-80911904D01*
X184228571Y-80930952D01*
X184200000Y-80940476D01*
X184152380Y-80940476D01*
D10*
X197246952Y-98385380D02*
X197437428Y-98385380D01*
X197532666Y-98433000D01*
X197627904Y-98528238D01*
X197675523Y-98718714D01*
X197675523Y-99052047D01*
X197627904Y-99242523D01*
X197532666Y-99337761D01*
X197437428Y-99385380D01*
X197246952Y-99385380D01*
X197151714Y-99337761D01*
X197056476Y-99242523D01*
X197008857Y-99052047D01*
X197008857Y-98718714D01*
X197056476Y-98528238D01*
X197151714Y-98433000D01*
X197246952Y-98385380D01*
X198104095Y-99385380D02*
X198104095Y-98385380D01*
X198675523Y-99385380D01*
X198675523Y-98385380D01*
D11*
X178057142Y-104280952D02*
X178085714Y-104290476D01*
X178133333Y-104290476D01*
X178152380Y-104280952D01*
X178161904Y-104271428D01*
X178171428Y-104252380D01*
X178171428Y-104233333D01*
X178161904Y-104214285D01*
X178152380Y-104204761D01*
X178133333Y-104195238D01*
X178095238Y-104185714D01*
X178076190Y-104176190D01*
X178066666Y-104166666D01*
X178057142Y-104147619D01*
X178057142Y-104128571D01*
X178066666Y-104109523D01*
X178076190Y-104100000D01*
X178095238Y-104090476D01*
X178142857Y-104090476D01*
X178171428Y-104100000D01*
X178257142Y-104290476D02*
X178257142Y-104090476D01*
X178304761Y-104090476D01*
X178333333Y-104100000D01*
X178352380Y-104119047D01*
X178361904Y-104138095D01*
X178371428Y-104176190D01*
X178371428Y-104204761D01*
X178361904Y-104242857D01*
X178352380Y-104261904D01*
X178333333Y-104280952D01*
X178304761Y-104290476D01*
X178257142Y-104290476D01*
X178447619Y-104233333D02*
X178542857Y-104233333D01*
X178428571Y-104290476D02*
X178495238Y-104090476D01*
X178561904Y-104290476D01*
X185997619Y-80930952D02*
X186026190Y-80940476D01*
X186073809Y-80940476D01*
X186092857Y-80930952D01*
X186102380Y-80921428D01*
X186111904Y-80902380D01*
X186111904Y-80883333D01*
X186102380Y-80864285D01*
X186092857Y-80854761D01*
X186073809Y-80845238D01*
X186035714Y-80835714D01*
X186016666Y-80826190D01*
X186007142Y-80816666D01*
X185997619Y-80797619D01*
X185997619Y-80778571D01*
X186007142Y-80759523D01*
X186016666Y-80750000D01*
X186035714Y-80740476D01*
X186083333Y-80740476D01*
X186111904Y-80750000D01*
X186178571Y-80740476D02*
X186226190Y-80940476D01*
X186264285Y-80797619D01*
X186302380Y-80940476D01*
X186350000Y-80740476D01*
X186540476Y-80921428D02*
X186530952Y-80930952D01*
X186502380Y-80940476D01*
X186483333Y-80940476D01*
X186454761Y-80930952D01*
X186435714Y-80911904D01*
X186426190Y-80892857D01*
X186416666Y-80854761D01*
X186416666Y-80826190D01*
X186426190Y-80788095D01*
X186435714Y-80769047D01*
X186454761Y-80750000D01*
X186483333Y-80740476D01*
X186502380Y-80740476D01*
X186530952Y-80750000D01*
X186540476Y-80759523D01*
X186721428Y-80940476D02*
X186626190Y-80940476D01*
X186626190Y-80740476D01*
X186788095Y-80940476D02*
X186788095Y-80740476D01*
X186902380Y-80940476D02*
X186816666Y-80826190D01*
X186902380Y-80740476D02*
X186788095Y-80854761D01*
X188626190Y-80930952D02*
X188654761Y-80940476D01*
X188702380Y-80940476D01*
X188721428Y-80930952D01*
X188730952Y-80921428D01*
X188740476Y-80902380D01*
X188740476Y-80883333D01*
X188730952Y-80864285D01*
X188721428Y-80854761D01*
X188702380Y-80845238D01*
X188664285Y-80835714D01*
X188645238Y-80826190D01*
X188635714Y-80816666D01*
X188626190Y-80797619D01*
X188626190Y-80778571D01*
X188635714Y-80759523D01*
X188645238Y-80750000D01*
X188664285Y-80740476D01*
X188711904Y-80740476D01*
X188740476Y-80750000D01*
X188807142Y-80740476D02*
X188854761Y-80940476D01*
X188892857Y-80797619D01*
X188930952Y-80940476D01*
X188978571Y-80740476D01*
X189054761Y-80940476D02*
X189054761Y-80740476D01*
X189102380Y-80740476D01*
X189130952Y-80750000D01*
X189150000Y-80769047D01*
X189159523Y-80788095D01*
X189169047Y-80826190D01*
X189169047Y-80854761D01*
X189159523Y-80892857D01*
X189150000Y-80911904D01*
X189130952Y-80930952D01*
X189102380Y-80940476D01*
X189054761Y-80940476D01*
X189254761Y-80940476D02*
X189254761Y-80740476D01*
X189388095Y-80740476D02*
X189426190Y-80740476D01*
X189445238Y-80750000D01*
X189464285Y-80769047D01*
X189473809Y-80807142D01*
X189473809Y-80873809D01*
X189464285Y-80911904D01*
X189445238Y-80930952D01*
X189426190Y-80940476D01*
X189388095Y-80940476D01*
X189369047Y-80930952D01*
X189350000Y-80911904D01*
X189340476Y-80873809D01*
X189340476Y-80807142D01*
X189350000Y-80769047D01*
X189369047Y-80750000D01*
X189388095Y-80740476D01*
X168402019Y-80748200D02*
X168382971Y-80738676D01*
X168354400Y-80738676D01*
X168325828Y-80748200D01*
X168306780Y-80767247D01*
X168297257Y-80786295D01*
X168287733Y-80824390D01*
X168287733Y-80852961D01*
X168297257Y-80891057D01*
X168306780Y-80910104D01*
X168325828Y-80929152D01*
X168354400Y-80938676D01*
X168373447Y-80938676D01*
X168402019Y-80929152D01*
X168411542Y-80919628D01*
X168411542Y-80852961D01*
X168373447Y-80852961D01*
X168497257Y-80938676D02*
X168497257Y-80738676D01*
X168611542Y-80938676D01*
X168611542Y-80738676D01*
X168706780Y-80938676D02*
X168706780Y-80738676D01*
X168754400Y-80738676D01*
X168782971Y-80748200D01*
X168802019Y-80767247D01*
X168811542Y-80786295D01*
X168821066Y-80824390D01*
X168821066Y-80852961D01*
X168811542Y-80891057D01*
X168802019Y-80910104D01*
X168782971Y-80929152D01*
X168754400Y-80938676D01*
X168706780Y-80938676D01*
D10*
X197238095Y-84161380D02*
X197238095Y-84970904D01*
X197285714Y-85066142D01*
X197333333Y-85113761D01*
X197428571Y-85161380D01*
X197619047Y-85161380D01*
X197714285Y-85113761D01*
X197761904Y-85066142D01*
X197809523Y-84970904D01*
X197809523Y-84161380D01*
X198238095Y-85113761D02*
X198380952Y-85161380D01*
X198619047Y-85161380D01*
X198714285Y-85113761D01*
X198761904Y-85066142D01*
X198809523Y-84970904D01*
X198809523Y-84875666D01*
X198761904Y-84780428D01*
X198714285Y-84732809D01*
X198619047Y-84685190D01*
X198428571Y-84637571D01*
X198333333Y-84589952D01*
X198285714Y-84542333D01*
X198238095Y-84447095D01*
X198238095Y-84351857D01*
X198285714Y-84256619D01*
X198333333Y-84209000D01*
X198428571Y-84161380D01*
X198666666Y-84161380D01*
X198809523Y-84209000D01*
X199571428Y-84637571D02*
X199714285Y-84685190D01*
X199761904Y-84732809D01*
X199809523Y-84828047D01*
X199809523Y-84970904D01*
X199761904Y-85066142D01*
X199714285Y-85113761D01*
X199619047Y-85161380D01*
X199238095Y-85161380D01*
X199238095Y-84161380D01*
X199571428Y-84161380D01*
X199666666Y-84209000D01*
X199714285Y-84256619D01*
X199761904Y-84351857D01*
X199761904Y-84447095D01*
X199714285Y-84542333D01*
X199666666Y-84589952D01*
X199571428Y-84637571D01*
X199238095Y-84637571D01*
X165619180Y-80817838D02*
X166428704Y-80817838D01*
X166523942Y-80770219D01*
X166571561Y-80722600D01*
X166619180Y-80627361D01*
X166619180Y-80436885D01*
X166571561Y-80341647D01*
X166523942Y-80294028D01*
X166428704Y-80246409D01*
X165619180Y-80246409D01*
X166333466Y-79817838D02*
X166333466Y-79341647D01*
X166619180Y-79913076D02*
X165619180Y-79579742D01*
X166619180Y-79246409D01*
X166619180Y-78341647D02*
X166142990Y-78674980D01*
X166619180Y-78913076D02*
X165619180Y-78913076D01*
X165619180Y-78532123D01*
X165666800Y-78436885D01*
X165714419Y-78389266D01*
X165809657Y-78341647D01*
X165952514Y-78341647D01*
X166047752Y-78389266D01*
X166095371Y-78436885D01*
X166142990Y-78532123D01*
X166142990Y-78913076D01*
X165619180Y-78055933D02*
X165619180Y-77484504D01*
X166619180Y-77770219D02*
X165619180Y-77770219D01*
D11*
X172952380Y-104090476D02*
X173076190Y-104090476D01*
X173009523Y-104166666D01*
X173038095Y-104166666D01*
X173057142Y-104176190D01*
X173066666Y-104185714D01*
X173076190Y-104204761D01*
X173076190Y-104252380D01*
X173066666Y-104271428D01*
X173057142Y-104280952D01*
X173038095Y-104290476D01*
X172980952Y-104290476D01*
X172961904Y-104280952D01*
X172952380Y-104271428D01*
X173133333Y-104090476D02*
X173200000Y-104290476D01*
X173266666Y-104090476D01*
X173314285Y-104090476D02*
X173438095Y-104090476D01*
X173371428Y-104166666D01*
X173400000Y-104166666D01*
X173419047Y-104176190D01*
X173428571Y-104185714D01*
X173438095Y-104204761D01*
X173438095Y-104252380D01*
X173428571Y-104271428D01*
X173419047Y-104280952D01*
X173400000Y-104290476D01*
X173342857Y-104290476D01*
X173323809Y-104280952D01*
X173314285Y-104271428D01*
X175461904Y-104280952D02*
X175490476Y-104290476D01*
X175538095Y-104290476D01*
X175557142Y-104280952D01*
X175566666Y-104271428D01*
X175576190Y-104252380D01*
X175576190Y-104233333D01*
X175566666Y-104214285D01*
X175557142Y-104204761D01*
X175538095Y-104195238D01*
X175500000Y-104185714D01*
X175480952Y-104176190D01*
X175471428Y-104166666D01*
X175461904Y-104147619D01*
X175461904Y-104128571D01*
X175471428Y-104109523D01*
X175480952Y-104100000D01*
X175500000Y-104090476D01*
X175547619Y-104090476D01*
X175576190Y-104100000D01*
X175776190Y-104271428D02*
X175766666Y-104280952D01*
X175738095Y-104290476D01*
X175719047Y-104290476D01*
X175690476Y-104280952D01*
X175671428Y-104261904D01*
X175661904Y-104242857D01*
X175652380Y-104204761D01*
X175652380Y-104176190D01*
X175661904Y-104138095D01*
X175671428Y-104119047D01*
X175690476Y-104100000D01*
X175719047Y-104090476D01*
X175738095Y-104090476D01*
X175766666Y-104100000D01*
X175776190Y-104109523D01*
X175957142Y-104290476D02*
X175861904Y-104290476D01*
X175861904Y-104090476D01*
D10*
%TO.C,U1*%
X179421095Y-85340380D02*
X179421095Y-86149904D01*
X179468714Y-86245142D01*
X179516333Y-86292761D01*
X179611571Y-86340380D01*
X179802047Y-86340380D01*
X179897285Y-86292761D01*
X179944904Y-86245142D01*
X179992523Y-86149904D01*
X179992523Y-85340380D01*
X180992523Y-86340380D02*
X180421095Y-86340380D01*
X180706809Y-86340380D02*
X180706809Y-85340380D01*
X180611571Y-85483238D01*
X180516333Y-85578476D01*
X180421095Y-85626095D01*
%TO.C,R5*%
X197419933Y-96718380D02*
X197086600Y-96242190D01*
X196848504Y-96718380D02*
X196848504Y-95718380D01*
X197229457Y-95718380D01*
X197324695Y-95766000D01*
X197372314Y-95813619D01*
X197419933Y-95908857D01*
X197419933Y-96051714D01*
X197372314Y-96146952D01*
X197324695Y-96194571D01*
X197229457Y-96242190D01*
X196848504Y-96242190D01*
X198324695Y-95718380D02*
X197848504Y-95718380D01*
X197800885Y-96194571D01*
X197848504Y-96146952D01*
X197943742Y-96099333D01*
X198181838Y-96099333D01*
X198277076Y-96146952D01*
X198324695Y-96194571D01*
X198372314Y-96289809D01*
X198372314Y-96527904D01*
X198324695Y-96623142D01*
X198277076Y-96670761D01*
X198181838Y-96718380D01*
X197943742Y-96718380D01*
X197848504Y-96670761D01*
X197800885Y-96623142D01*
%TO.C,C2*%
X174703333Y-87567142D02*
X174655714Y-87614761D01*
X174512857Y-87662380D01*
X174417619Y-87662380D01*
X174274761Y-87614761D01*
X174179523Y-87519523D01*
X174131904Y-87424285D01*
X174084285Y-87233809D01*
X174084285Y-87090952D01*
X174131904Y-86900476D01*
X174179523Y-86805238D01*
X174274761Y-86710000D01*
X174417619Y-86662380D01*
X174512857Y-86662380D01*
X174655714Y-86710000D01*
X174703333Y-86757619D01*
X175084285Y-86757619D02*
X175131904Y-86710000D01*
X175227142Y-86662380D01*
X175465238Y-86662380D01*
X175560476Y-86710000D01*
X175608095Y-86757619D01*
X175655714Y-86852857D01*
X175655714Y-86948095D01*
X175608095Y-87090952D01*
X175036666Y-87662380D01*
X175655714Y-87662380D01*
%TO.C,SW_1*%
X160083714Y-82827761D02*
X160226571Y-82875380D01*
X160464666Y-82875380D01*
X160559904Y-82827761D01*
X160607523Y-82780142D01*
X160655142Y-82684904D01*
X160655142Y-82589666D01*
X160607523Y-82494428D01*
X160559904Y-82446809D01*
X160464666Y-82399190D01*
X160274190Y-82351571D01*
X160178952Y-82303952D01*
X160131333Y-82256333D01*
X160083714Y-82161095D01*
X160083714Y-82065857D01*
X160131333Y-81970619D01*
X160178952Y-81923000D01*
X160274190Y-81875380D01*
X160512285Y-81875380D01*
X160655142Y-81923000D01*
X160988476Y-81875380D02*
X161226571Y-82875380D01*
X161417047Y-82161095D01*
X161607523Y-82875380D01*
X161845619Y-81875380D01*
X161988476Y-82970619D02*
X162750380Y-82970619D01*
X163512285Y-82875380D02*
X162940857Y-82875380D01*
X163226571Y-82875380D02*
X163226571Y-81875380D01*
X163131333Y-82018238D01*
X163036095Y-82113476D01*
X162940857Y-82161095D01*
%TO.C,C13*%
X192016142Y-101576142D02*
X191968523Y-101623761D01*
X191825666Y-101671380D01*
X191730428Y-101671380D01*
X191587571Y-101623761D01*
X191492333Y-101528523D01*
X191444714Y-101433285D01*
X191397095Y-101242809D01*
X191397095Y-101099952D01*
X191444714Y-100909476D01*
X191492333Y-100814238D01*
X191587571Y-100719000D01*
X191730428Y-100671380D01*
X191825666Y-100671380D01*
X191968523Y-100719000D01*
X192016142Y-100766619D01*
X192968523Y-101671380D02*
X192397095Y-101671380D01*
X192682809Y-101671380D02*
X192682809Y-100671380D01*
X192587571Y-100814238D01*
X192492333Y-100909476D01*
X192397095Y-100957095D01*
X193301857Y-100671380D02*
X193920904Y-100671380D01*
X193587571Y-101052333D01*
X193730428Y-101052333D01*
X193825666Y-101099952D01*
X193873285Y-101147571D01*
X193920904Y-101242809D01*
X193920904Y-101480904D01*
X193873285Y-101576142D01*
X193825666Y-101623761D01*
X193730428Y-101671380D01*
X193444714Y-101671380D01*
X193349476Y-101623761D01*
X193301857Y-101576142D01*
%TO.C,C7*%
X170704333Y-96402142D02*
X170656714Y-96449761D01*
X170513857Y-96497380D01*
X170418619Y-96497380D01*
X170275761Y-96449761D01*
X170180523Y-96354523D01*
X170132904Y-96259285D01*
X170085285Y-96068809D01*
X170085285Y-95925952D01*
X170132904Y-95735476D01*
X170180523Y-95640238D01*
X170275761Y-95545000D01*
X170418619Y-95497380D01*
X170513857Y-95497380D01*
X170656714Y-95545000D01*
X170704333Y-95592619D01*
X171037666Y-95497380D02*
X171704333Y-95497380D01*
X171275761Y-96497380D01*
%TO.C,C8*%
X170704333Y-98381142D02*
X170656714Y-98428761D01*
X170513857Y-98476380D01*
X170418619Y-98476380D01*
X170275761Y-98428761D01*
X170180523Y-98333523D01*
X170132904Y-98238285D01*
X170085285Y-98047809D01*
X170085285Y-97904952D01*
X170132904Y-97714476D01*
X170180523Y-97619238D01*
X170275761Y-97524000D01*
X170418619Y-97476380D01*
X170513857Y-97476380D01*
X170656714Y-97524000D01*
X170704333Y-97571619D01*
X171275761Y-97904952D02*
X171180523Y-97857333D01*
X171132904Y-97809714D01*
X171085285Y-97714476D01*
X171085285Y-97666857D01*
X171132904Y-97571619D01*
X171180523Y-97524000D01*
X171275761Y-97476380D01*
X171466238Y-97476380D01*
X171561476Y-97524000D01*
X171609095Y-97571619D01*
X171656714Y-97666857D01*
X171656714Y-97714476D01*
X171609095Y-97809714D01*
X171561476Y-97857333D01*
X171466238Y-97904952D01*
X171275761Y-97904952D01*
X171180523Y-97952571D01*
X171132904Y-98000190D01*
X171085285Y-98095428D01*
X171085285Y-98285904D01*
X171132904Y-98381142D01*
X171180523Y-98428761D01*
X171275761Y-98476380D01*
X171466238Y-98476380D01*
X171561476Y-98428761D01*
X171609095Y-98381142D01*
X171656714Y-98285904D01*
X171656714Y-98095428D01*
X171609095Y-98000190D01*
X171561476Y-97952571D01*
X171466238Y-97904952D01*
%TO.C,C10*%
X170756342Y-86996542D02*
X170708723Y-87044161D01*
X170565866Y-87091780D01*
X170470628Y-87091780D01*
X170327771Y-87044161D01*
X170232533Y-86948923D01*
X170184914Y-86853685D01*
X170137295Y-86663209D01*
X170137295Y-86520352D01*
X170184914Y-86329876D01*
X170232533Y-86234638D01*
X170327771Y-86139400D01*
X170470628Y-86091780D01*
X170565866Y-86091780D01*
X170708723Y-86139400D01*
X170756342Y-86187019D01*
X171708723Y-87091780D02*
X171137295Y-87091780D01*
X171423009Y-87091780D02*
X171423009Y-86091780D01*
X171327771Y-86234638D01*
X171232533Y-86329876D01*
X171137295Y-86377495D01*
X172327771Y-86091780D02*
X172423009Y-86091780D01*
X172518247Y-86139400D01*
X172565866Y-86187019D01*
X172613485Y-86282257D01*
X172661104Y-86472733D01*
X172661104Y-86710828D01*
X172613485Y-86901304D01*
X172565866Y-86996542D01*
X172518247Y-87044161D01*
X172423009Y-87091780D01*
X172327771Y-87091780D01*
X172232533Y-87044161D01*
X172184914Y-86996542D01*
X172137295Y-86901304D01*
X172089676Y-86710828D01*
X172089676Y-86472733D01*
X172137295Y-86282257D01*
X172184914Y-86187019D01*
X172232533Y-86139400D01*
X172327771Y-86091780D01*
%TO.C,U2*%
X186944095Y-104354380D02*
X186944095Y-105163904D01*
X186991714Y-105259142D01*
X187039333Y-105306761D01*
X187134571Y-105354380D01*
X187325047Y-105354380D01*
X187420285Y-105306761D01*
X187467904Y-105259142D01*
X187515523Y-105163904D01*
X187515523Y-104354380D01*
X187944095Y-104449619D02*
X187991714Y-104402000D01*
X188086952Y-104354380D01*
X188325047Y-104354380D01*
X188420285Y-104402000D01*
X188467904Y-104449619D01*
X188515523Y-104544857D01*
X188515523Y-104640095D01*
X188467904Y-104782952D01*
X187896476Y-105354380D01*
X188515523Y-105354380D01*
%TO.C,C1*%
X174076333Y-84231142D02*
X174028714Y-84278761D01*
X173885857Y-84326380D01*
X173790619Y-84326380D01*
X173647761Y-84278761D01*
X173552523Y-84183523D01*
X173504904Y-84088285D01*
X173457285Y-83897809D01*
X173457285Y-83754952D01*
X173504904Y-83564476D01*
X173552523Y-83469238D01*
X173647761Y-83374000D01*
X173790619Y-83326380D01*
X173885857Y-83326380D01*
X174028714Y-83374000D01*
X174076333Y-83421619D01*
X175028714Y-84326380D02*
X174457285Y-84326380D01*
X174743000Y-84326380D02*
X174743000Y-83326380D01*
X174647761Y-83469238D01*
X174552523Y-83564476D01*
X174457285Y-83612095D01*
%TO.C,C4*%
X185253333Y-91289142D02*
X185205714Y-91336761D01*
X185062857Y-91384380D01*
X184967619Y-91384380D01*
X184824761Y-91336761D01*
X184729523Y-91241523D01*
X184681904Y-91146285D01*
X184634285Y-90955809D01*
X184634285Y-90812952D01*
X184681904Y-90622476D01*
X184729523Y-90527238D01*
X184824761Y-90432000D01*
X184967619Y-90384380D01*
X185062857Y-90384380D01*
X185205714Y-90432000D01*
X185253333Y-90479619D01*
X186110476Y-90717714D02*
X186110476Y-91384380D01*
X185872380Y-90336761D02*
X185634285Y-91051047D01*
X186253333Y-91051047D01*
%TO.C,FB1*%
X174037666Y-99202571D02*
X173704333Y-99202571D01*
X173704333Y-99726380D02*
X173704333Y-98726380D01*
X174180523Y-98726380D01*
X174894809Y-99202571D02*
X175037666Y-99250190D01*
X175085285Y-99297809D01*
X175132904Y-99393047D01*
X175132904Y-99535904D01*
X175085285Y-99631142D01*
X175037666Y-99678761D01*
X174942428Y-99726380D01*
X174561476Y-99726380D01*
X174561476Y-98726380D01*
X174894809Y-98726380D01*
X174990047Y-98774000D01*
X175037666Y-98821619D01*
X175085285Y-98916857D01*
X175085285Y-99012095D01*
X175037666Y-99107333D01*
X174990047Y-99154952D01*
X174894809Y-99202571D01*
X174561476Y-99202571D01*
X176085285Y-99726380D02*
X175513857Y-99726380D01*
X175799571Y-99726380D02*
X175799571Y-98726380D01*
X175704333Y-98869238D01*
X175609095Y-98964476D01*
X175513857Y-99012095D01*
%TO.C,R3*%
X174003333Y-103712380D02*
X173670000Y-103236190D01*
X173431904Y-103712380D02*
X173431904Y-102712380D01*
X173812857Y-102712380D01*
X173908095Y-102760000D01*
X173955714Y-102807619D01*
X174003333Y-102902857D01*
X174003333Y-103045714D01*
X173955714Y-103140952D01*
X173908095Y-103188571D01*
X173812857Y-103236190D01*
X173431904Y-103236190D01*
X174336666Y-102712380D02*
X174955714Y-102712380D01*
X174622380Y-103093333D01*
X174765238Y-103093333D01*
X174860476Y-103140952D01*
X174908095Y-103188571D01*
X174955714Y-103283809D01*
X174955714Y-103521904D01*
X174908095Y-103617142D01*
X174860476Y-103664761D01*
X174765238Y-103712380D01*
X174479523Y-103712380D01*
X174384285Y-103664761D01*
X174336666Y-103617142D01*
%TO.C,Y1*%
X165970809Y-91523190D02*
X165970809Y-91999380D01*
X165637476Y-90999380D02*
X165970809Y-91523190D01*
X166304142Y-90999380D01*
X167161285Y-91999380D02*
X166589857Y-91999380D01*
X166875571Y-91999380D02*
X166875571Y-90999380D01*
X166780333Y-91142238D01*
X166685095Y-91237476D01*
X166589857Y-91285095D01*
%TO.C,C5*%
X174584333Y-85995142D02*
X174536714Y-86042761D01*
X174393857Y-86090380D01*
X174298619Y-86090380D01*
X174155761Y-86042761D01*
X174060523Y-85947523D01*
X174012904Y-85852285D01*
X173965285Y-85661809D01*
X173965285Y-85518952D01*
X174012904Y-85328476D01*
X174060523Y-85233238D01*
X174155761Y-85138000D01*
X174298619Y-85090380D01*
X174393857Y-85090380D01*
X174536714Y-85138000D01*
X174584333Y-85185619D01*
X175489095Y-85090380D02*
X175012904Y-85090380D01*
X174965285Y-85566571D01*
X175012904Y-85518952D01*
X175108142Y-85471333D01*
X175346238Y-85471333D01*
X175441476Y-85518952D01*
X175489095Y-85566571D01*
X175536714Y-85661809D01*
X175536714Y-85899904D01*
X175489095Y-85995142D01*
X175441476Y-86042761D01*
X175346238Y-86090380D01*
X175108142Y-86090380D01*
X175012904Y-86042761D01*
X174965285Y-85995142D01*
%TO.C,C6*%
X173033333Y-94557142D02*
X172985714Y-94604761D01*
X172842857Y-94652380D01*
X172747619Y-94652380D01*
X172604761Y-94604761D01*
X172509523Y-94509523D01*
X172461904Y-94414285D01*
X172414285Y-94223809D01*
X172414285Y-94080952D01*
X172461904Y-93890476D01*
X172509523Y-93795238D01*
X172604761Y-93700000D01*
X172747619Y-93652380D01*
X172842857Y-93652380D01*
X172985714Y-93700000D01*
X173033333Y-93747619D01*
X173890476Y-93652380D02*
X173700000Y-93652380D01*
X173604761Y-93700000D01*
X173557142Y-93747619D01*
X173461904Y-93890476D01*
X173414285Y-94080952D01*
X173414285Y-94461904D01*
X173461904Y-94557142D01*
X173509523Y-94604761D01*
X173604761Y-94652380D01*
X173795238Y-94652380D01*
X173890476Y-94604761D01*
X173938095Y-94557142D01*
X173985714Y-94461904D01*
X173985714Y-94223809D01*
X173938095Y-94128571D01*
X173890476Y-94080952D01*
X173795238Y-94033333D01*
X173604761Y-94033333D01*
X173509523Y-94080952D01*
X173461904Y-94128571D01*
X173414285Y-94223809D01*
%TO.C,C9*%
X176866333Y-99081142D02*
X176818714Y-99128761D01*
X176675857Y-99176380D01*
X176580619Y-99176380D01*
X176437761Y-99128761D01*
X176342523Y-99033523D01*
X176294904Y-98938285D01*
X176247285Y-98747809D01*
X176247285Y-98604952D01*
X176294904Y-98414476D01*
X176342523Y-98319238D01*
X176437761Y-98224000D01*
X176580619Y-98176380D01*
X176675857Y-98176380D01*
X176818714Y-98224000D01*
X176866333Y-98271619D01*
X177342523Y-99176380D02*
X177533000Y-99176380D01*
X177628238Y-99128761D01*
X177675857Y-99081142D01*
X177771095Y-98938285D01*
X177818714Y-98747809D01*
X177818714Y-98366857D01*
X177771095Y-98271619D01*
X177723476Y-98224000D01*
X177628238Y-98176380D01*
X177437761Y-98176380D01*
X177342523Y-98224000D01*
X177294904Y-98271619D01*
X177247285Y-98366857D01*
X177247285Y-98604952D01*
X177294904Y-98700190D01*
X177342523Y-98747809D01*
X177437761Y-98795428D01*
X177628238Y-98795428D01*
X177723476Y-98747809D01*
X177771095Y-98700190D01*
X177818714Y-98604952D01*
%TO.C,R1*%
X165058733Y-84124580D02*
X164725400Y-83648390D01*
X164487304Y-84124580D02*
X164487304Y-83124580D01*
X164868257Y-83124580D01*
X164963495Y-83172200D01*
X165011114Y-83219819D01*
X165058733Y-83315057D01*
X165058733Y-83457914D01*
X165011114Y-83553152D01*
X164963495Y-83600771D01*
X164868257Y-83648390D01*
X164487304Y-83648390D01*
X166011114Y-84124580D02*
X165439685Y-84124580D01*
X165725400Y-84124580D02*
X165725400Y-83124580D01*
X165630161Y-83267438D01*
X165534923Y-83362676D01*
X165439685Y-83410295D01*
%TO.C,C11*%
X170122142Y-93235142D02*
X170074523Y-93282761D01*
X169931666Y-93330380D01*
X169836428Y-93330380D01*
X169693571Y-93282761D01*
X169598333Y-93187523D01*
X169550714Y-93092285D01*
X169503095Y-92901809D01*
X169503095Y-92758952D01*
X169550714Y-92568476D01*
X169598333Y-92473238D01*
X169693571Y-92378000D01*
X169836428Y-92330380D01*
X169931666Y-92330380D01*
X170074523Y-92378000D01*
X170122142Y-92425619D01*
X171074523Y-93330380D02*
X170503095Y-93330380D01*
X170788809Y-93330380D02*
X170788809Y-92330380D01*
X170693571Y-92473238D01*
X170598333Y-92568476D01*
X170503095Y-92616095D01*
X172026904Y-93330380D02*
X171455476Y-93330380D01*
X171741190Y-93330380D02*
X171741190Y-92330380D01*
X171645952Y-92473238D01*
X171550714Y-92568476D01*
X171455476Y-92616095D01*
%TO.C,R2*%
X189558333Y-90132380D02*
X189225000Y-89656190D01*
X188986904Y-90132380D02*
X188986904Y-89132380D01*
X189367857Y-89132380D01*
X189463095Y-89180000D01*
X189510714Y-89227619D01*
X189558333Y-89322857D01*
X189558333Y-89465714D01*
X189510714Y-89560952D01*
X189463095Y-89608571D01*
X189367857Y-89656190D01*
X188986904Y-89656190D01*
X189939285Y-89227619D02*
X189986904Y-89180000D01*
X190082142Y-89132380D01*
X190320238Y-89132380D01*
X190415476Y-89180000D01*
X190463095Y-89227619D01*
X190510714Y-89322857D01*
X190510714Y-89418095D01*
X190463095Y-89560952D01*
X189891666Y-90132380D01*
X190510714Y-90132380D01*
%TO.C,C12*%
X187317142Y-92559142D02*
X187269523Y-92606761D01*
X187126666Y-92654380D01*
X187031428Y-92654380D01*
X186888571Y-92606761D01*
X186793333Y-92511523D01*
X186745714Y-92416285D01*
X186698095Y-92225809D01*
X186698095Y-92082952D01*
X186745714Y-91892476D01*
X186793333Y-91797238D01*
X186888571Y-91702000D01*
X187031428Y-91654380D01*
X187126666Y-91654380D01*
X187269523Y-91702000D01*
X187317142Y-91749619D01*
X188269523Y-92654380D02*
X187698095Y-92654380D01*
X187983809Y-92654380D02*
X187983809Y-91654380D01*
X187888571Y-91797238D01*
X187793333Y-91892476D01*
X187698095Y-91940095D01*
X188650476Y-91749619D02*
X188698095Y-91702000D01*
X188793333Y-91654380D01*
X189031428Y-91654380D01*
X189126666Y-91702000D01*
X189174285Y-91749619D01*
X189221904Y-91844857D01*
X189221904Y-91940095D01*
X189174285Y-92082952D01*
X188602857Y-92654380D01*
X189221904Y-92654380D01*
%TO.C,D1*%
X195161904Y-101464880D02*
X195161904Y-100464880D01*
X195400000Y-100464880D01*
X195542857Y-100512500D01*
X195638095Y-100607738D01*
X195685714Y-100702976D01*
X195733333Y-100893452D01*
X195733333Y-101036309D01*
X195685714Y-101226785D01*
X195638095Y-101322023D01*
X195542857Y-101417261D01*
X195400000Y-101464880D01*
X195161904Y-101464880D01*
X196685714Y-101464880D02*
X196114285Y-101464880D01*
X196400000Y-101464880D02*
X196400000Y-100464880D01*
X196304761Y-100607738D01*
X196209523Y-100702976D01*
X196114285Y-100750595D01*
%TO.C,C3*%
X181853333Y-99041142D02*
X181805714Y-99088761D01*
X181662857Y-99136380D01*
X181567619Y-99136380D01*
X181424761Y-99088761D01*
X181329523Y-98993523D01*
X181281904Y-98898285D01*
X181234285Y-98707809D01*
X181234285Y-98564952D01*
X181281904Y-98374476D01*
X181329523Y-98279238D01*
X181424761Y-98184000D01*
X181567619Y-98136380D01*
X181662857Y-98136380D01*
X181805714Y-98184000D01*
X181853333Y-98231619D01*
X182186666Y-98136380D02*
X182805714Y-98136380D01*
X182472380Y-98517333D01*
X182615238Y-98517333D01*
X182710476Y-98564952D01*
X182758095Y-98612571D01*
X182805714Y-98707809D01*
X182805714Y-98945904D01*
X182758095Y-99041142D01*
X182710476Y-99088761D01*
X182615238Y-99136380D01*
X182329523Y-99136380D01*
X182234285Y-99088761D01*
X182186666Y-99041142D01*
%TO.C,R4*%
X180267333Y-103712380D02*
X179934000Y-103236190D01*
X179695904Y-103712380D02*
X179695904Y-102712380D01*
X180076857Y-102712380D01*
X180172095Y-102760000D01*
X180219714Y-102807619D01*
X180267333Y-102902857D01*
X180267333Y-103045714D01*
X180219714Y-103140952D01*
X180172095Y-103188571D01*
X180076857Y-103236190D01*
X179695904Y-103236190D01*
X181124476Y-103045714D02*
X181124476Y-103712380D01*
X180886380Y-102664761D02*
X180648285Y-103379047D01*
X181267333Y-103379047D01*
D14*
%TO.C,U1*%
X176140000Y-95210000D02*
X175690000Y-95210000D01*
X182910000Y-87990000D02*
X182910000Y-88440000D01*
X182460000Y-87990000D02*
X182910000Y-87990000D01*
X182460000Y-95210000D02*
X182910000Y-95210000D01*
X182910000Y-95210000D02*
X182910000Y-94760000D01*
X175690000Y-88440000D02*
X174400000Y-88440000D01*
X176140000Y-87990000D02*
X175690000Y-87990000D01*
X175690000Y-87990000D02*
X175690000Y-88440000D01*
X175690000Y-95210000D02*
X175690000Y-94760000D01*
%TO.C,J2*%
X167250000Y-77870000D02*
X167250000Y-80530000D01*
X177530000Y-77870000D02*
X177530000Y-79200000D01*
X176200000Y-77870000D02*
X177530000Y-77870000D01*
X174930000Y-80530000D02*
X167250000Y-80530000D01*
X174930000Y-77870000D02*
X167250000Y-77870000D01*
X174930000Y-77870000D02*
X174930000Y-80530000D01*
%TO.C,R5*%
X195606641Y-95886000D02*
X195299359Y-95886000D01*
X195606641Y-96646000D02*
X195299359Y-96646000D01*
D10*
%TO.C,J1*%
X195850000Y-94550000D02*
X197250000Y-94550000D01*
X194100000Y-88600000D02*
X194100000Y-87600000D01*
X200250000Y-86550000D02*
X199800000Y-86550000D01*
X199650000Y-94550000D02*
X199800000Y-94550000D01*
X194100000Y-92200000D02*
X194100000Y-93200000D01*
X199800000Y-86250000D02*
X199650000Y-86250000D01*
X193675000Y-92200000D02*
X194100000Y-92200000D01*
X197250000Y-86250000D02*
X195850000Y-86250000D01*
X193675000Y-91475000D02*
X193675000Y-92200000D01*
X199800000Y-94550000D02*
X199800000Y-94250000D01*
X199800000Y-94250000D02*
X200250000Y-94250000D01*
X199800000Y-86550000D02*
X199800000Y-86250000D01*
D14*
%TO.C,C2*%
X173843000Y-88481836D02*
X173843000Y-88266164D01*
X173123000Y-88481836D02*
X173123000Y-88266164D01*
%TO.C,SW_1*%
X160100000Y-84650000D02*
X160100000Y-90350000D01*
X161900000Y-84050000D02*
X161110000Y-84050000D01*
X162950000Y-85900000D02*
X162950000Y-87600000D01*
X161110000Y-90950000D02*
X161900000Y-90950000D01*
X162950000Y-88900000D02*
X162950000Y-89100000D01*
%TO.C,C13*%
X193335000Y-99011252D02*
X193335000Y-98488748D01*
X191865000Y-99011252D02*
X191865000Y-98488748D01*
%TO.C,C7*%
X172930836Y-95685000D02*
X172715164Y-95685000D01*
X172930836Y-96405000D02*
X172715164Y-96405000D01*
%TO.C,C8*%
X172930836Y-98384000D02*
X172715164Y-98384000D01*
X172930836Y-97664000D02*
X172715164Y-97664000D01*
%TO.C,J4*%
X174470000Y-107130000D02*
X182150000Y-107130000D01*
X174470000Y-107130000D02*
X174470000Y-104470000D01*
X173200000Y-107130000D02*
X171870000Y-107130000D01*
X171870000Y-107130000D02*
X171870000Y-105800000D01*
X182150000Y-107130000D02*
X182150000Y-104470000D01*
X174470000Y-104470000D02*
X182150000Y-104470000D01*
%TO.C,C10*%
X171760000Y-89296836D02*
X171760000Y-89081164D01*
X171040000Y-89296836D02*
X171040000Y-89081164D01*
%TO.C,U2*%
X184290000Y-101510000D02*
X185550000Y-101510000D01*
X184290000Y-97750000D02*
X184290000Y-101510000D01*
X191110000Y-95500000D02*
X191110000Y-101510000D01*
X191110000Y-101510000D02*
X189850000Y-101510000D01*
%TO.C,C1*%
X176642420Y-84384000D02*
X176923580Y-84384000D01*
X176642420Y-83364000D02*
X176923580Y-83364000D01*
%TO.C,C4*%
X185543000Y-88966164D02*
X185543000Y-89181836D01*
X184823000Y-88966164D02*
X184823000Y-89181836D01*
%TO.C,FB1*%
X175131000Y-96861221D02*
X175131000Y-97186779D01*
X174111000Y-96861221D02*
X174111000Y-97186779D01*
%TO.C,R3*%
X176353641Y-102880000D02*
X176046359Y-102880000D01*
X176353641Y-103640000D02*
X176046359Y-103640000D01*
%TO.C,Y1*%
X167376000Y-88000000D02*
X167376000Y-92000000D01*
X170676000Y-88000000D02*
X167376000Y-88000000D01*
%TO.C,J3*%
X182650000Y-77870000D02*
X182650000Y-80530000D01*
X190330000Y-80530000D02*
X182650000Y-80530000D01*
X190330000Y-77870000D02*
X182650000Y-77870000D01*
X190330000Y-77870000D02*
X190330000Y-80530000D01*
X191600000Y-77870000D02*
X192930000Y-77870000D01*
X192930000Y-77870000D02*
X192930000Y-79200000D01*
%TO.C,C5*%
X176675164Y-85834000D02*
X176890836Y-85834000D01*
X176675164Y-85114000D02*
X176890836Y-85114000D01*
%TO.C,C6*%
X173743000Y-92681836D02*
X173743000Y-92466164D01*
X173023000Y-92681836D02*
X173023000Y-92466164D01*
%TO.C,C9*%
X176925164Y-97164000D02*
X177140836Y-97164000D01*
X176925164Y-97884000D02*
X177140836Y-97884000D01*
%TO.C,R1*%
X164669200Y-85497641D02*
X164669200Y-85190359D01*
X165429200Y-85497641D02*
X165429200Y-85190359D01*
%TO.C,C11*%
X171760000Y-91334836D02*
X171760000Y-91119164D01*
X171040000Y-91334836D02*
X171040000Y-91119164D01*
%TO.C,R2*%
X187920000Y-89436359D02*
X187920000Y-89743641D01*
X188680000Y-89436359D02*
X188680000Y-89743641D01*
%TO.C,C12*%
X187638748Y-94635000D02*
X188161252Y-94635000D01*
X187638748Y-93165000D02*
X188161252Y-93165000D01*
%TO.C,D1*%
X196635000Y-97327500D02*
X195165000Y-97327500D01*
X196635000Y-99612500D02*
X196635000Y-97327500D01*
X195165000Y-97327500D02*
X195165000Y-99612500D01*
%TO.C,C3*%
X182127836Y-97164000D02*
X181912164Y-97164000D01*
X182127836Y-97884000D02*
X181912164Y-97884000D01*
%TO.C,R4*%
X178246359Y-103640000D02*
X178553641Y-103640000D01*
X178246359Y-102880000D02*
X178553641Y-102880000D01*
%TO.C,Ducky*%
G36*
X163699188Y-98010494D02*
G01*
X163681714Y-98001249D01*
X163672331Y-97968477D01*
X163669153Y-97904620D01*
X163669093Y-97890115D01*
X163668098Y-97860020D01*
X163970041Y-97860020D01*
X163981857Y-97879856D01*
X164022033Y-97888892D01*
X164060326Y-97890115D01*
X164119833Y-97886177D01*
X164146939Y-97872785D01*
X164150610Y-97860020D01*
X164156069Y-97848242D01*
X164176164Y-97839917D01*
X164216472Y-97834489D01*
X164282570Y-97831399D01*
X164380037Y-97830089D01*
X164451558Y-97829926D01*
X164569343Y-97829380D01*
X164652590Y-97827370D01*
X164706875Y-97823339D01*
X164737776Y-97816730D01*
X164750871Y-97806983D01*
X164752506Y-97799831D01*
X164756363Y-97792938D01*
X164770047Y-97787165D01*
X164796728Y-97782415D01*
X164839575Y-97778594D01*
X164901758Y-97775604D01*
X164986446Y-97773350D01*
X165096809Y-97771736D01*
X165236016Y-97770665D01*
X165407237Y-97770042D01*
X165613641Y-97769770D01*
X165745634Y-97769736D01*
X165973103Y-97769853D01*
X166163615Y-97770268D01*
X166320341Y-97771076D01*
X166446449Y-97772375D01*
X166545110Y-97774259D01*
X166619492Y-97776825D01*
X166672765Y-97780169D01*
X166708099Y-97784388D01*
X166728663Y-97789576D01*
X166737627Y-97795831D01*
X166738762Y-97799831D01*
X166744476Y-97812161D01*
X166765511Y-97820684D01*
X166807708Y-97826047D01*
X166876906Y-97828901D01*
X166978946Y-97829892D01*
X167009615Y-97829926D01*
X167120590Y-97830560D01*
X167197293Y-97832898D01*
X167245564Y-97837586D01*
X167271242Y-97845275D01*
X167280169Y-97856613D01*
X167280468Y-97860020D01*
X167296528Y-97886620D01*
X167310563Y-97890115D01*
X167337162Y-97874055D01*
X167340657Y-97860020D01*
X167324598Y-97833421D01*
X167310563Y-97829926D01*
X167283963Y-97813866D01*
X167280468Y-97799831D01*
X167262523Y-97775938D01*
X167220278Y-97769736D01*
X167172493Y-97760764D01*
X167160089Y-97739641D01*
X167142144Y-97715749D01*
X167099899Y-97709546D01*
X167052114Y-97700574D01*
X167039710Y-97679452D01*
X167027894Y-97659616D01*
X166987718Y-97650581D01*
X166949425Y-97649357D01*
X166889918Y-97645418D01*
X166862812Y-97632026D01*
X166859141Y-97619262D01*
X166849896Y-97601787D01*
X166817123Y-97592405D01*
X166753266Y-97589227D01*
X166738762Y-97589167D01*
X166668863Y-97586856D01*
X166631335Y-97578663D01*
X166618620Y-97562699D01*
X166618383Y-97559073D01*
X166611924Y-97545330D01*
X166588230Y-97536389D01*
X166540824Y-97531327D01*
X166463227Y-97529216D01*
X166407719Y-97528978D01*
X166311519Y-97528055D01*
X166248937Y-97524670D01*
X166213498Y-97517898D01*
X166198723Y-97506813D01*
X166197056Y-97498883D01*
X166192607Y-97489801D01*
X166176428Y-97482711D01*
X166144268Y-97477379D01*
X166091879Y-97473568D01*
X166015010Y-97471041D01*
X165909412Y-97469563D01*
X165770835Y-97468897D01*
X165655349Y-97468788D01*
X165491868Y-97469035D01*
X165364261Y-97469934D01*
X165268278Y-97471721D01*
X165199671Y-97474631D01*
X165154190Y-97478902D01*
X165127584Y-97484768D01*
X165115604Y-97492467D01*
X165113643Y-97498883D01*
X165107185Y-97512626D01*
X165083491Y-97521566D01*
X165036084Y-97526629D01*
X164958487Y-97528740D01*
X164902980Y-97528978D01*
X164806779Y-97529900D01*
X164744198Y-97533285D01*
X164708759Y-97540058D01*
X164693984Y-97551143D01*
X164692316Y-97559073D01*
X164683071Y-97576547D01*
X164650299Y-97585929D01*
X164586441Y-97589108D01*
X164571937Y-97589167D01*
X164502038Y-97591479D01*
X164464510Y-97599672D01*
X164451795Y-97615636D01*
X164451558Y-97619262D01*
X164439742Y-97639098D01*
X164399567Y-97648133D01*
X164361274Y-97649357D01*
X164301766Y-97653295D01*
X164274660Y-97666687D01*
X164270989Y-97679452D01*
X164253044Y-97703344D01*
X164210800Y-97709546D01*
X164163015Y-97718519D01*
X164150610Y-97739641D01*
X164132665Y-97763534D01*
X164090420Y-97769736D01*
X164042636Y-97778709D01*
X164030231Y-97799831D01*
X164014171Y-97826430D01*
X164000136Y-97829926D01*
X163973537Y-97845986D01*
X163970041Y-97860020D01*
X163668098Y-97860020D01*
X163666782Y-97820216D01*
X163658589Y-97782688D01*
X163642625Y-97769973D01*
X163638999Y-97769736D01*
X163612400Y-97785796D01*
X163608904Y-97799831D01*
X163601022Y-97815705D01*
X163572537Y-97825023D01*
X163516193Y-97829236D01*
X163458430Y-97829926D01*
X163379059Y-97828349D01*
X163332469Y-97822652D01*
X163311404Y-97811384D01*
X163307956Y-97799831D01*
X163296140Y-97779995D01*
X163255965Y-97770960D01*
X163217672Y-97769736D01*
X163158164Y-97765798D01*
X163131058Y-97752406D01*
X163127387Y-97739641D01*
X163111327Y-97713042D01*
X163097293Y-97709546D01*
X163070693Y-97693487D01*
X163067198Y-97679452D01*
X163051138Y-97652853D01*
X163037103Y-97649357D01*
X163013211Y-97631412D01*
X163007008Y-97589167D01*
X162998036Y-97541382D01*
X162976913Y-97528978D01*
X162953021Y-97511033D01*
X162946819Y-97468788D01*
X162937846Y-97421003D01*
X162916724Y-97408599D01*
X162902042Y-97401562D01*
X162892896Y-97375880D01*
X162888145Y-97324696D01*
X162886645Y-97241152D01*
X162886629Y-97228030D01*
X163187577Y-97228030D01*
X163189888Y-97297929D01*
X163198081Y-97335457D01*
X163214046Y-97348172D01*
X163217672Y-97348409D01*
X163241564Y-97366354D01*
X163247766Y-97408599D01*
X163256739Y-97456383D01*
X163277861Y-97468788D01*
X163304460Y-97484848D01*
X163307956Y-97498883D01*
X163317201Y-97516358D01*
X163349974Y-97525740D01*
X163413831Y-97528918D01*
X163428335Y-97528978D01*
X163498234Y-97526667D01*
X163535762Y-97518473D01*
X163548477Y-97502509D01*
X163548714Y-97498883D01*
X163564774Y-97472284D01*
X163578809Y-97468788D01*
X163602702Y-97450843D01*
X163608904Y-97408599D01*
X163617876Y-97360814D01*
X163638999Y-97348409D01*
X163656473Y-97339164D01*
X163665855Y-97306391D01*
X163669034Y-97242534D01*
X163669093Y-97228030D01*
X163666782Y-97158131D01*
X163658589Y-97120603D01*
X163642625Y-97107888D01*
X163638999Y-97107651D01*
X163615106Y-97089706D01*
X163608904Y-97047461D01*
X163599931Y-96999676D01*
X163578809Y-96987272D01*
X163552210Y-96971212D01*
X163548714Y-96957177D01*
X163536899Y-96937341D01*
X163496723Y-96928306D01*
X163458430Y-96927082D01*
X163398922Y-96931021D01*
X163371817Y-96944412D01*
X163368146Y-96957177D01*
X163350201Y-96981069D01*
X163307956Y-96987272D01*
X163265324Y-96992243D01*
X163249610Y-97015693D01*
X163247766Y-97047461D01*
X163238794Y-97095246D01*
X163217672Y-97107651D01*
X163200197Y-97116896D01*
X163190815Y-97149668D01*
X163187636Y-97213526D01*
X163187577Y-97228030D01*
X162886629Y-97228030D01*
X162887802Y-97139937D01*
X162892082Y-97085066D01*
X162900613Y-97056558D01*
X162914537Y-97047556D01*
X162916724Y-97047461D01*
X162940616Y-97029516D01*
X162946819Y-96987272D01*
X162955791Y-96939487D01*
X162976913Y-96927082D01*
X163000806Y-96909137D01*
X163007008Y-96866892D01*
X163015981Y-96819108D01*
X163037103Y-96806703D01*
X163063702Y-96790643D01*
X163067198Y-96776608D01*
X163085143Y-96752716D01*
X163127387Y-96746513D01*
X163175172Y-96737541D01*
X163187577Y-96716419D01*
X163205522Y-96692526D01*
X163247766Y-96686324D01*
X163295551Y-96677351D01*
X163307956Y-96656229D01*
X163315838Y-96640355D01*
X163344323Y-96631037D01*
X163400667Y-96626824D01*
X163458430Y-96626134D01*
X163537801Y-96627711D01*
X163584391Y-96633408D01*
X163605456Y-96644676D01*
X163608904Y-96656229D01*
X163626849Y-96680121D01*
X163669093Y-96686324D01*
X163716878Y-96695296D01*
X163729283Y-96716419D01*
X163745343Y-96743018D01*
X163759378Y-96746513D01*
X163785977Y-96762573D01*
X163789473Y-96776608D01*
X163805533Y-96803207D01*
X163819567Y-96806703D01*
X163843460Y-96824648D01*
X163849662Y-96866892D01*
X163858635Y-96914677D01*
X163879757Y-96927082D01*
X163903649Y-96945027D01*
X163909852Y-96987272D01*
X163918824Y-97035056D01*
X163939947Y-97047461D01*
X163954629Y-97054498D01*
X163963774Y-97080180D01*
X163968525Y-97131364D01*
X163970025Y-97214908D01*
X163970041Y-97228030D01*
X163968869Y-97316122D01*
X163964588Y-97370994D01*
X163956058Y-97399502D01*
X163942134Y-97408503D01*
X163939947Y-97408599D01*
X163916054Y-97426544D01*
X163909852Y-97468788D01*
X163918824Y-97516573D01*
X163939947Y-97528978D01*
X163966546Y-97512918D01*
X163970041Y-97498883D01*
X163987986Y-97474991D01*
X164030231Y-97468788D01*
X164078016Y-97459816D01*
X164090420Y-97438693D01*
X164108366Y-97414801D01*
X164150610Y-97408599D01*
X164198395Y-97399626D01*
X164210800Y-97378504D01*
X164222615Y-97358668D01*
X164262791Y-97349633D01*
X164301084Y-97348409D01*
X164360592Y-97344471D01*
X164387697Y-97331079D01*
X164391368Y-97318314D01*
X164399251Y-97302440D01*
X164427735Y-97293122D01*
X164484079Y-97288909D01*
X164541842Y-97288219D01*
X164621213Y-97286643D01*
X164667803Y-97280946D01*
X164688869Y-97269677D01*
X164692316Y-97258125D01*
X164698775Y-97244382D01*
X164722468Y-97235442D01*
X164769875Y-97230379D01*
X164847472Y-97228268D01*
X164902980Y-97228030D01*
X164999180Y-97227107D01*
X165061761Y-97223722D01*
X165097201Y-97216950D01*
X165111976Y-97205865D01*
X165113643Y-97197935D01*
X165118092Y-97188853D01*
X165134271Y-97181763D01*
X165166430Y-97176431D01*
X165218820Y-97172620D01*
X165295688Y-97170093D01*
X165401287Y-97168615D01*
X165539864Y-97167949D01*
X165655349Y-97167840D01*
X165818831Y-97168087D01*
X165946438Y-97168986D01*
X166042420Y-97170773D01*
X166111027Y-97173683D01*
X166156509Y-97177954D01*
X166183115Y-97183820D01*
X166195095Y-97191519D01*
X166197056Y-97197935D01*
X166204092Y-97212617D01*
X166229774Y-97221762D01*
X166280958Y-97226514D01*
X166364502Y-97228014D01*
X166377624Y-97228030D01*
X166558193Y-97228030D01*
X166558193Y-97077556D01*
X166859141Y-97077556D01*
X166863079Y-97137064D01*
X166876471Y-97164169D01*
X166889236Y-97167840D01*
X166915835Y-97183900D01*
X166919330Y-97197935D01*
X166935390Y-97224534D01*
X166949425Y-97228030D01*
X166966900Y-97218785D01*
X166976282Y-97186012D01*
X166979461Y-97122155D01*
X166979520Y-97107651D01*
X166979520Y-96987272D01*
X166919330Y-96987272D01*
X166882319Y-96989889D01*
X166864789Y-97005000D01*
X166859481Y-97043495D01*
X166859141Y-97077556D01*
X166558193Y-97077556D01*
X166559769Y-96998185D01*
X166565466Y-96951595D01*
X166576735Y-96930530D01*
X166588288Y-96927082D01*
X166612180Y-96909137D01*
X166618383Y-96866892D01*
X166627355Y-96819108D01*
X166648477Y-96806703D01*
X166675076Y-96790643D01*
X166678572Y-96776608D01*
X166694632Y-96750009D01*
X166708667Y-96746513D01*
X166735266Y-96730453D01*
X166738762Y-96716419D01*
X166754822Y-96689819D01*
X166768856Y-96686324D01*
X166795456Y-96670264D01*
X166798951Y-96656229D01*
X166808196Y-96638754D01*
X166840969Y-96629372D01*
X166904826Y-96626193D01*
X166919330Y-96626134D01*
X166989229Y-96628445D01*
X167026757Y-96636639D01*
X167039472Y-96652603D01*
X167039710Y-96656229D01*
X167057655Y-96680121D01*
X167099899Y-96686324D01*
X167142531Y-96691295D01*
X167158245Y-96714745D01*
X167160089Y-96746513D01*
X167169061Y-96794298D01*
X167190184Y-96806703D01*
X167216783Y-96822763D01*
X167220278Y-96836798D01*
X167236338Y-96863397D01*
X167250373Y-96866892D01*
X167264116Y-96873351D01*
X167273056Y-96897045D01*
X167278119Y-96944451D01*
X167280230Y-97022048D01*
X167280468Y-97077556D01*
X167279545Y-97173756D01*
X167276160Y-97236338D01*
X167269388Y-97271777D01*
X167258303Y-97286552D01*
X167250373Y-97288219D01*
X167230537Y-97300035D01*
X167221502Y-97340211D01*
X167220278Y-97378504D01*
X167222023Y-97434021D01*
X167232097Y-97460316D01*
X167257761Y-97468278D01*
X167280468Y-97468788D01*
X167328253Y-97477761D01*
X167340657Y-97498883D01*
X167358602Y-97522775D01*
X167400847Y-97528978D01*
X167448632Y-97537950D01*
X167461037Y-97559073D01*
X167477097Y-97585672D01*
X167491131Y-97589167D01*
X167517731Y-97605227D01*
X167521226Y-97619262D01*
X167537286Y-97645861D01*
X167551321Y-97649357D01*
X167575213Y-97667302D01*
X167581416Y-97709546D01*
X167590388Y-97757331D01*
X167611511Y-97769736D01*
X167626193Y-97776773D01*
X167635338Y-97802455D01*
X167640089Y-97853639D01*
X167641589Y-97937183D01*
X167641605Y-97950305D01*
X167641605Y-98130873D01*
X167581416Y-98130873D01*
X167533631Y-98139846D01*
X167521226Y-98160968D01*
X167505166Y-98187567D01*
X167491131Y-98191063D01*
X167464532Y-98207123D01*
X167461037Y-98221158D01*
X167443092Y-98245050D01*
X167400847Y-98251253D01*
X167353062Y-98260225D01*
X167340657Y-98281347D01*
X167324598Y-98307947D01*
X167310563Y-98311442D01*
X167283963Y-98327502D01*
X167280468Y-98341537D01*
X167268652Y-98361373D01*
X167228477Y-98370408D01*
X167190184Y-98371632D01*
X167130676Y-98375570D01*
X167103570Y-98388962D01*
X167099899Y-98401727D01*
X167088084Y-98421562D01*
X167047908Y-98430598D01*
X167009615Y-98431821D01*
X166950107Y-98435760D01*
X166923001Y-98449152D01*
X166919330Y-98461916D01*
X166910085Y-98479391D01*
X166877313Y-98488773D01*
X166813456Y-98491952D01*
X166798951Y-98492011D01*
X166729053Y-98494322D01*
X166691524Y-98502515D01*
X166678810Y-98518480D01*
X166678572Y-98522106D01*
X166672114Y-98535849D01*
X166648420Y-98544789D01*
X166601013Y-98549852D01*
X166523416Y-98551962D01*
X166467909Y-98552200D01*
X166371708Y-98553123D01*
X166309127Y-98556508D01*
X166273688Y-98563280D01*
X166258912Y-98574366D01*
X166257245Y-98582295D01*
X166252863Y-98591160D01*
X166236957Y-98598130D01*
X166205386Y-98603425D01*
X166154007Y-98607261D01*
X166078679Y-98609858D01*
X165975262Y-98611433D01*
X165839613Y-98612204D01*
X165685444Y-98612390D01*
X165517022Y-98612159D01*
X165384583Y-98611322D01*
X165283986Y-98609661D01*
X165211089Y-98606956D01*
X165161751Y-98602992D01*
X165131830Y-98597549D01*
X165117186Y-98590409D01*
X165113643Y-98582295D01*
X165107607Y-98569320D01*
X165085405Y-98560591D01*
X165040899Y-98555341D01*
X164967951Y-98552802D01*
X164872885Y-98552200D01*
X164769084Y-98551446D01*
X164699251Y-98548671D01*
X164657248Y-98543108D01*
X164636935Y-98533989D01*
X164632127Y-98522106D01*
X164622882Y-98504631D01*
X164590109Y-98495249D01*
X164526252Y-98492070D01*
X164511747Y-98492011D01*
X164441849Y-98489700D01*
X164404320Y-98481507D01*
X164391606Y-98465542D01*
X164391368Y-98461916D01*
X164379553Y-98442080D01*
X164339377Y-98433045D01*
X164301084Y-98431821D01*
X164241576Y-98427883D01*
X164214471Y-98414491D01*
X164210800Y-98401727D01*
X164198984Y-98381891D01*
X164158808Y-98372855D01*
X164120515Y-98371632D01*
X164061008Y-98367693D01*
X164033902Y-98354301D01*
X164030231Y-98341537D01*
X164014171Y-98314938D01*
X164000136Y-98311442D01*
X163973537Y-98295382D01*
X163970041Y-98281347D01*
X163952096Y-98257455D01*
X163909852Y-98251253D01*
X163862067Y-98242280D01*
X163849662Y-98221158D01*
X163833602Y-98194559D01*
X163819567Y-98191063D01*
X163792968Y-98175003D01*
X163789473Y-98160968D01*
X163773413Y-98134369D01*
X163759378Y-98130873D01*
X163735485Y-98112928D01*
X163729283Y-98070684D01*
X163723632Y-98040589D01*
X164150610Y-98040589D01*
X164156324Y-98052920D01*
X164177359Y-98061442D01*
X164219556Y-98066806D01*
X164288754Y-98069659D01*
X164390795Y-98070651D01*
X164421463Y-98070684D01*
X164532438Y-98071319D01*
X164609141Y-98073656D01*
X164657412Y-98078345D01*
X164683091Y-98086033D01*
X164692017Y-98097371D01*
X164692316Y-98100779D01*
X164696131Y-98107487D01*
X164709628Y-98113137D01*
X164735887Y-98117816D01*
X164777988Y-98121613D01*
X164839010Y-98124616D01*
X164922032Y-98126911D01*
X165030135Y-98128589D01*
X165166396Y-98129735D01*
X165333897Y-98130440D01*
X165535717Y-98130789D01*
X165745634Y-98130873D01*
X165980426Y-98130764D01*
X166178171Y-98130379D01*
X166341950Y-98129629D01*
X166474841Y-98128426D01*
X166579924Y-98126682D01*
X166660279Y-98124310D01*
X166718985Y-98121222D01*
X166759121Y-98117328D01*
X166783768Y-98112543D01*
X166796004Y-98106776D01*
X166798951Y-98100779D01*
X166805988Y-98086097D01*
X166831670Y-98076951D01*
X166882854Y-98072200D01*
X166966398Y-98070700D01*
X166979520Y-98070684D01*
X167067612Y-98069511D01*
X167122484Y-98065231D01*
X167150992Y-98056700D01*
X167159994Y-98042776D01*
X167160089Y-98040589D01*
X167153630Y-98026846D01*
X167129937Y-98017906D01*
X167082530Y-98012843D01*
X167004933Y-98010733D01*
X166949425Y-98010494D01*
X166853225Y-98009572D01*
X166790644Y-98006187D01*
X166755204Y-97999415D01*
X166740429Y-97988329D01*
X166738762Y-97980400D01*
X166734926Y-97973601D01*
X166721338Y-97967890D01*
X166694873Y-97963176D01*
X166652408Y-97959367D01*
X166590819Y-97956370D01*
X166506983Y-97954094D01*
X166397777Y-97952447D01*
X166260076Y-97951338D01*
X166090757Y-97950673D01*
X165886697Y-97950362D01*
X165715539Y-97950305D01*
X165484382Y-97950418D01*
X165290227Y-97950817D01*
X165129951Y-97951596D01*
X165000431Y-97952845D01*
X164898542Y-97954656D01*
X164821161Y-97957122D01*
X164765166Y-97960334D01*
X164727431Y-97964384D01*
X164704834Y-97969364D01*
X164694251Y-97975365D01*
X164692316Y-97980400D01*
X164686602Y-97992730D01*
X164665567Y-98001253D01*
X164623370Y-98006616D01*
X164554172Y-98009469D01*
X164452132Y-98010461D01*
X164421463Y-98010494D01*
X164310488Y-98011129D01*
X164233785Y-98013466D01*
X164185514Y-98018155D01*
X164159836Y-98025844D01*
X164150909Y-98037182D01*
X164150610Y-98040589D01*
X163723632Y-98040589D01*
X163720310Y-98022899D01*
X163699188Y-98010494D01*
G37*
G36*
X163846984Y-96024552D02*
G01*
X163959290Y-96025698D01*
X164040738Y-96027986D01*
X164095961Y-96031724D01*
X164129591Y-96037222D01*
X164146262Y-96044788D01*
X164150610Y-96054333D01*
X164157647Y-96069015D01*
X164183329Y-96078161D01*
X164234513Y-96082912D01*
X164318057Y-96084412D01*
X164331179Y-96084428D01*
X164419271Y-96085601D01*
X164474143Y-96089881D01*
X164502651Y-96098412D01*
X164511652Y-96112336D01*
X164511747Y-96114523D01*
X164527807Y-96141122D01*
X164541842Y-96144618D01*
X164568441Y-96160677D01*
X164571937Y-96174712D01*
X164587997Y-96201312D01*
X164602032Y-96204807D01*
X164621868Y-96216623D01*
X164630903Y-96256798D01*
X164632127Y-96295091D01*
X164628188Y-96354599D01*
X164614796Y-96381705D01*
X164602032Y-96385376D01*
X164575433Y-96401436D01*
X164571937Y-96415471D01*
X164555877Y-96442070D01*
X164541842Y-96445565D01*
X164515243Y-96461625D01*
X164511747Y-96475660D01*
X164502503Y-96493135D01*
X164469730Y-96502517D01*
X164405873Y-96505696D01*
X164391368Y-96505755D01*
X164321470Y-96508066D01*
X164283941Y-96516259D01*
X164271227Y-96532224D01*
X164270989Y-96535850D01*
X164266541Y-96544932D01*
X164250361Y-96552021D01*
X164218202Y-96557354D01*
X164165813Y-96561165D01*
X164088944Y-96563692D01*
X163983346Y-96565170D01*
X163844769Y-96565836D01*
X163729283Y-96565945D01*
X163565801Y-96565697D01*
X163438194Y-96564799D01*
X163342212Y-96563012D01*
X163273605Y-96560101D01*
X163228123Y-96555831D01*
X163201517Y-96549964D01*
X163189537Y-96542266D01*
X163187577Y-96535850D01*
X163179695Y-96519976D01*
X163151210Y-96510658D01*
X163094866Y-96506445D01*
X163037103Y-96505755D01*
X162957732Y-96504179D01*
X162911142Y-96498482D01*
X162890077Y-96487213D01*
X162886629Y-96475660D01*
X162870569Y-96449061D01*
X162856534Y-96445565D01*
X162829935Y-96429506D01*
X162826439Y-96415471D01*
X162810380Y-96388871D01*
X162796345Y-96385376D01*
X162776509Y-96373560D01*
X162767474Y-96333385D01*
X162766250Y-96295091D01*
X162770188Y-96235584D01*
X162783580Y-96208478D01*
X162796345Y-96204807D01*
X162822944Y-96188747D01*
X162826439Y-96174712D01*
X162844384Y-96150820D01*
X162886629Y-96144618D01*
X162934414Y-96135645D01*
X162946819Y-96114523D01*
X162954701Y-96098649D01*
X162983186Y-96089331D01*
X163039529Y-96085118D01*
X163097293Y-96084428D01*
X163176663Y-96082852D01*
X163223253Y-96077155D01*
X163244319Y-96065886D01*
X163247766Y-96054333D01*
X163252468Y-96044480D01*
X163269662Y-96036993D01*
X163303979Y-96031563D01*
X163360054Y-96027882D01*
X163442519Y-96025640D01*
X163556005Y-96024528D01*
X163699188Y-96024238D01*
X163846984Y-96024552D01*
G37*
G36*
X160901975Y-97881744D02*
G01*
X160904490Y-97805401D01*
X160908604Y-97754827D01*
X160914658Y-97725236D01*
X160922994Y-97711844D01*
X160930468Y-97709546D01*
X160945150Y-97702510D01*
X160954295Y-97676828D01*
X160959046Y-97625644D01*
X160960547Y-97542100D01*
X160960563Y-97528978D01*
X160961735Y-97440885D01*
X160966016Y-97386014D01*
X160974546Y-97357506D01*
X160988470Y-97348504D01*
X160990657Y-97348409D01*
X161008132Y-97339164D01*
X161017514Y-97306391D01*
X161020693Y-97242534D01*
X161020752Y-97228030D01*
X161023063Y-97158131D01*
X161031257Y-97120603D01*
X161047221Y-97107888D01*
X161050847Y-97107651D01*
X161070683Y-97095835D01*
X161079718Y-97055660D01*
X161080942Y-97017366D01*
X161084880Y-96957859D01*
X161098272Y-96930753D01*
X161111037Y-96927082D01*
X161130872Y-96915266D01*
X161139908Y-96875091D01*
X161141131Y-96836798D01*
X161145070Y-96777290D01*
X161158462Y-96750184D01*
X161171226Y-96746513D01*
X161195119Y-96728568D01*
X161201321Y-96686324D01*
X161210293Y-96638539D01*
X161231416Y-96626134D01*
X161255308Y-96608189D01*
X161261511Y-96565945D01*
X161270483Y-96518160D01*
X161291605Y-96505755D01*
X161315498Y-96487810D01*
X161321700Y-96445565D01*
X161330673Y-96397781D01*
X161351795Y-96385376D01*
X161375687Y-96367431D01*
X161381890Y-96325186D01*
X161390862Y-96277401D01*
X161411984Y-96264997D01*
X161438584Y-96248937D01*
X161442079Y-96234902D01*
X161458139Y-96208303D01*
X161472174Y-96204807D01*
X161496066Y-96186862D01*
X161502269Y-96144618D01*
X161511241Y-96096833D01*
X161532364Y-96084428D01*
X161558963Y-96068368D01*
X161562458Y-96054333D01*
X161578518Y-96027734D01*
X161592553Y-96024238D01*
X161616446Y-96006293D01*
X161622648Y-95964049D01*
X161631620Y-95916264D01*
X161652743Y-95903859D01*
X161679342Y-95887799D01*
X161682838Y-95873764D01*
X161698897Y-95847165D01*
X161712932Y-95843670D01*
X161739531Y-95827610D01*
X161743027Y-95813575D01*
X161759087Y-95786976D01*
X161773122Y-95783480D01*
X161799721Y-95767420D01*
X161803217Y-95753385D01*
X161819277Y-95726786D01*
X161833311Y-95723291D01*
X161859911Y-95707231D01*
X161863406Y-95693196D01*
X161879466Y-95666597D01*
X161893501Y-95663101D01*
X161920100Y-95647041D01*
X161923596Y-95633006D01*
X161939656Y-95606407D01*
X161953691Y-95602911D01*
X161980290Y-95586851D01*
X161983785Y-95572817D01*
X161999845Y-95546217D01*
X162013880Y-95542722D01*
X162040479Y-95526662D01*
X162043975Y-95512627D01*
X162060035Y-95486028D01*
X162074070Y-95482532D01*
X162100669Y-95466472D01*
X162104165Y-95452437D01*
X162120224Y-95425838D01*
X162134259Y-95422343D01*
X162160858Y-95406283D01*
X162164354Y-95392248D01*
X162180414Y-95365649D01*
X162194449Y-95362153D01*
X162221048Y-95346093D01*
X162224544Y-95332058D01*
X162240604Y-95305459D01*
X162254638Y-95301964D01*
X162281238Y-95285904D01*
X162284733Y-95271869D01*
X162300793Y-95245270D01*
X162314828Y-95241774D01*
X162341427Y-95225714D01*
X162344923Y-95211679D01*
X162362868Y-95187787D01*
X162405112Y-95181584D01*
X162452897Y-95172612D01*
X162465302Y-95151490D01*
X162481362Y-95124890D01*
X162495397Y-95121395D01*
X162521996Y-95105335D01*
X162525492Y-95091300D01*
X162543437Y-95067408D01*
X162585681Y-95061205D01*
X162633466Y-95052233D01*
X162645871Y-95031110D01*
X162661931Y-95004511D01*
X162675965Y-95001016D01*
X162702565Y-94984956D01*
X162706060Y-94970921D01*
X162724005Y-94947028D01*
X162766250Y-94940826D01*
X162814035Y-94931854D01*
X162826439Y-94910731D01*
X162844384Y-94886839D01*
X162886629Y-94880637D01*
X162934414Y-94871664D01*
X162946819Y-94850542D01*
X162964764Y-94826649D01*
X163007008Y-94820447D01*
X163054793Y-94811474D01*
X163067198Y-94790352D01*
X163079013Y-94770516D01*
X163119189Y-94761481D01*
X163157482Y-94760257D01*
X163216990Y-94756319D01*
X163244095Y-94742927D01*
X163247766Y-94730163D01*
X163265712Y-94706270D01*
X163307956Y-94700068D01*
X163355741Y-94691095D01*
X163368146Y-94669973D01*
X163379961Y-94650137D01*
X163420137Y-94641102D01*
X163458430Y-94639878D01*
X163517938Y-94635940D01*
X163545043Y-94622548D01*
X163548714Y-94609783D01*
X163557959Y-94592309D01*
X163590732Y-94582927D01*
X163654589Y-94579748D01*
X163669093Y-94579689D01*
X163738992Y-94577377D01*
X163776520Y-94569184D01*
X163789235Y-94553220D01*
X163789473Y-94549594D01*
X163796509Y-94534912D01*
X163822191Y-94525767D01*
X163873375Y-94521015D01*
X163956919Y-94519515D01*
X163970041Y-94519499D01*
X164058134Y-94518326D01*
X164113005Y-94514046D01*
X164141513Y-94505515D01*
X164150515Y-94491591D01*
X164150610Y-94489404D01*
X164155312Y-94479551D01*
X164172505Y-94472064D01*
X164206823Y-94466634D01*
X164262898Y-94462953D01*
X164345362Y-94460711D01*
X164458849Y-94459599D01*
X164602032Y-94459310D01*
X164749828Y-94459623D01*
X164862134Y-94460769D01*
X164943582Y-94463057D01*
X164998805Y-94466795D01*
X165032435Y-94472293D01*
X165049105Y-94479859D01*
X165053454Y-94489404D01*
X165060490Y-94504086D01*
X165086172Y-94513232D01*
X165137356Y-94517983D01*
X165220900Y-94519483D01*
X165234022Y-94519499D01*
X165322115Y-94520672D01*
X165376986Y-94524952D01*
X165405494Y-94533483D01*
X165414496Y-94547407D01*
X165414591Y-94549594D01*
X165423836Y-94567069D01*
X165456609Y-94576451D01*
X165520466Y-94579629D01*
X165534970Y-94579689D01*
X165604869Y-94582000D01*
X165642397Y-94590193D01*
X165655112Y-94606157D01*
X165655349Y-94609783D01*
X165667165Y-94629619D01*
X165707341Y-94638655D01*
X165745634Y-94639878D01*
X165805141Y-94643817D01*
X165832247Y-94657209D01*
X165835918Y-94669973D01*
X165847734Y-94689809D01*
X165887909Y-94698844D01*
X165926202Y-94700068D01*
X165985710Y-94704006D01*
X166012816Y-94717398D01*
X166016487Y-94730163D01*
X166034432Y-94754055D01*
X166076676Y-94760257D01*
X166124461Y-94769230D01*
X166136866Y-94790352D01*
X166154811Y-94814245D01*
X166197056Y-94820447D01*
X166244840Y-94829419D01*
X166257245Y-94850542D01*
X166275190Y-94874434D01*
X166317435Y-94880637D01*
X166365220Y-94889609D01*
X166377624Y-94910731D01*
X166395569Y-94934624D01*
X166437814Y-94940826D01*
X166485599Y-94949799D01*
X166498003Y-94970921D01*
X166514063Y-94997520D01*
X166528098Y-95001016D01*
X166554697Y-95017076D01*
X166558193Y-95031110D01*
X166576138Y-95055003D01*
X166618383Y-95061205D01*
X166666167Y-95070178D01*
X166678572Y-95091300D01*
X166694632Y-95117899D01*
X166708667Y-95121395D01*
X166735266Y-95137455D01*
X166738762Y-95151490D01*
X166756707Y-95175382D01*
X166798951Y-95181584D01*
X166846736Y-95190557D01*
X166859141Y-95211679D01*
X166875201Y-95238278D01*
X166889236Y-95241774D01*
X166915835Y-95257834D01*
X166919330Y-95271869D01*
X166935390Y-95298468D01*
X166949425Y-95301964D01*
X166976024Y-95318023D01*
X166979520Y-95332058D01*
X166995580Y-95358657D01*
X167009615Y-95362153D01*
X167036214Y-95378213D01*
X167039710Y-95392248D01*
X167055769Y-95418847D01*
X167069804Y-95422343D01*
X167096404Y-95438403D01*
X167099899Y-95452437D01*
X167117844Y-95476330D01*
X167160089Y-95482532D01*
X167207874Y-95491505D01*
X167220278Y-95512627D01*
X167236338Y-95539226D01*
X167250373Y-95542722D01*
X167274266Y-95560667D01*
X167280468Y-95602911D01*
X167289440Y-95650696D01*
X167310563Y-95663101D01*
X167337162Y-95679161D01*
X167340657Y-95693196D01*
X167356717Y-95719795D01*
X167370752Y-95723291D01*
X167397351Y-95739350D01*
X167400847Y-95753385D01*
X167416907Y-95779984D01*
X167430942Y-95783480D01*
X167457541Y-95799540D01*
X167461037Y-95813575D01*
X167477097Y-95840174D01*
X167491131Y-95843670D01*
X167517731Y-95859730D01*
X167521226Y-95873764D01*
X167537286Y-95900364D01*
X167551321Y-95903859D01*
X167575213Y-95921804D01*
X167581416Y-95964049D01*
X167590388Y-96011834D01*
X167611511Y-96024238D01*
X167638110Y-96040298D01*
X167641605Y-96054333D01*
X167657665Y-96080932D01*
X167671700Y-96084428D01*
X167695593Y-96102373D01*
X167701795Y-96144618D01*
X167710767Y-96192402D01*
X167731890Y-96204807D01*
X167758489Y-96220867D01*
X167761984Y-96234902D01*
X167778044Y-96261501D01*
X167792079Y-96264997D01*
X167815972Y-96282942D01*
X167822174Y-96325186D01*
X167831147Y-96372971D01*
X167852269Y-96385376D01*
X167876161Y-96403321D01*
X167882364Y-96445565D01*
X167891336Y-96493350D01*
X167912458Y-96505755D01*
X167936351Y-96523700D01*
X167942553Y-96565945D01*
X167951526Y-96613729D01*
X167972648Y-96626134D01*
X167996540Y-96644079D01*
X168002743Y-96686324D01*
X168011715Y-96734109D01*
X168032838Y-96746513D01*
X168052673Y-96758329D01*
X168061709Y-96798504D01*
X168062932Y-96836798D01*
X168066871Y-96896305D01*
X168080263Y-96923411D01*
X168093027Y-96927082D01*
X168112863Y-96938898D01*
X168121898Y-96979073D01*
X168123122Y-97017366D01*
X168127060Y-97076874D01*
X168140452Y-97103980D01*
X168153217Y-97107651D01*
X168170691Y-97116896D01*
X168180073Y-97149668D01*
X168183252Y-97213526D01*
X168183311Y-97228030D01*
X168185623Y-97297929D01*
X168193816Y-97335457D01*
X168209780Y-97348172D01*
X168213406Y-97348409D01*
X168229280Y-97356291D01*
X168238598Y-97384776D01*
X168242811Y-97441120D01*
X168243501Y-97498883D01*
X168245078Y-97578254D01*
X168250774Y-97624844D01*
X168262043Y-97645909D01*
X168273596Y-97649357D01*
X168283449Y-97654059D01*
X168290936Y-97671252D01*
X168296366Y-97705570D01*
X168300047Y-97761645D01*
X168302289Y-97844109D01*
X168303401Y-97957596D01*
X168303691Y-98100779D01*
X168303377Y-98248575D01*
X168302231Y-98360880D01*
X168299943Y-98442328D01*
X168296205Y-98497551D01*
X168290707Y-98531182D01*
X168283141Y-98547852D01*
X168273596Y-98552200D01*
X168258914Y-98559237D01*
X168249769Y-98584919D01*
X168245017Y-98636103D01*
X168243517Y-98719647D01*
X168243501Y-98732769D01*
X168242328Y-98820862D01*
X168238048Y-98875733D01*
X168229517Y-98904241D01*
X168215593Y-98913243D01*
X168213406Y-98913338D01*
X168195932Y-98922583D01*
X168186549Y-98955356D01*
X168183371Y-99019213D01*
X168183311Y-99033717D01*
X168181000Y-99103616D01*
X168172807Y-99141144D01*
X168156843Y-99153859D01*
X168153217Y-99154096D01*
X168133381Y-99165912D01*
X168124346Y-99206087D01*
X168123122Y-99244381D01*
X168119183Y-99303888D01*
X168105791Y-99330994D01*
X168093027Y-99334665D01*
X168073191Y-99346481D01*
X168064156Y-99386656D01*
X168062932Y-99424949D01*
X168058994Y-99484457D01*
X168045602Y-99511563D01*
X168032838Y-99515234D01*
X168008945Y-99533179D01*
X168002743Y-99575423D01*
X167993770Y-99623208D01*
X167972648Y-99635613D01*
X167948756Y-99653558D01*
X167942553Y-99695802D01*
X167933581Y-99743587D01*
X167912458Y-99755992D01*
X167888566Y-99773937D01*
X167882364Y-99816182D01*
X167873391Y-99863966D01*
X167852269Y-99876371D01*
X167828376Y-99894316D01*
X167822174Y-99936561D01*
X167813201Y-99984346D01*
X167792079Y-99996750D01*
X167768187Y-100014695D01*
X167761984Y-100056940D01*
X167753012Y-100104725D01*
X167731890Y-100117129D01*
X167705291Y-100133189D01*
X167701795Y-100147224D01*
X167685735Y-100173823D01*
X167671700Y-100177319D01*
X167645101Y-100193379D01*
X167641605Y-100207414D01*
X167625545Y-100234013D01*
X167611511Y-100237509D01*
X167587618Y-100255454D01*
X167581416Y-100297698D01*
X167572443Y-100345483D01*
X167551321Y-100357888D01*
X167524722Y-100373948D01*
X167521226Y-100387982D01*
X167505166Y-100414582D01*
X167491131Y-100418077D01*
X167464532Y-100434137D01*
X167461037Y-100448172D01*
X167444977Y-100474771D01*
X167430942Y-100478267D01*
X167404343Y-100494327D01*
X167400847Y-100508362D01*
X167384787Y-100534961D01*
X167370752Y-100538456D01*
X167346860Y-100556401D01*
X167340657Y-100598646D01*
X167331685Y-100646431D01*
X167310563Y-100658836D01*
X167283963Y-100674895D01*
X167280468Y-100688930D01*
X167264408Y-100715530D01*
X167250373Y-100719025D01*
X167223774Y-100735085D01*
X167220278Y-100749120D01*
X167204218Y-100775719D01*
X167190184Y-100779215D01*
X167163584Y-100795275D01*
X167160089Y-100809310D01*
X167142144Y-100833202D01*
X167099899Y-100839404D01*
X167052114Y-100848377D01*
X167039710Y-100869499D01*
X167023650Y-100896098D01*
X167009615Y-100899594D01*
X166983016Y-100915654D01*
X166979520Y-100929689D01*
X166963460Y-100956288D01*
X166949425Y-100959783D01*
X166922826Y-100975843D01*
X166919330Y-100989878D01*
X166903270Y-101016477D01*
X166889236Y-101019973D01*
X166862636Y-101036033D01*
X166859141Y-101050068D01*
X166841196Y-101073960D01*
X166798951Y-101080163D01*
X166751166Y-101089135D01*
X166738762Y-101110257D01*
X166722702Y-101136857D01*
X166708667Y-101140352D01*
X166682068Y-101156412D01*
X166678572Y-101170447D01*
X166660627Y-101194339D01*
X166618383Y-101200542D01*
X166570598Y-101209514D01*
X166558193Y-101230637D01*
X166542133Y-101257236D01*
X166528098Y-101260731D01*
X166501499Y-101276791D01*
X166498003Y-101290826D01*
X166480058Y-101314719D01*
X166437814Y-101320921D01*
X166390029Y-101329893D01*
X166377624Y-101351016D01*
X166359679Y-101374908D01*
X166317435Y-101381110D01*
X166269650Y-101390083D01*
X166257245Y-101411205D01*
X166239300Y-101435098D01*
X166197056Y-101441300D01*
X166149271Y-101450273D01*
X166136866Y-101471395D01*
X166118921Y-101495287D01*
X166076676Y-101501490D01*
X166028892Y-101510462D01*
X166016487Y-101531584D01*
X166004671Y-101551420D01*
X165964496Y-101560455D01*
X165926202Y-101561679D01*
X165866695Y-101565618D01*
X165839589Y-101579010D01*
X165835918Y-101591774D01*
X165824103Y-101611610D01*
X165783927Y-101620645D01*
X165745634Y-101621869D01*
X165686126Y-101625807D01*
X165659020Y-101639199D01*
X165655349Y-101651964D01*
X165646104Y-101669438D01*
X165613332Y-101678820D01*
X165549475Y-101681999D01*
X165534970Y-101682058D01*
X165465072Y-101684370D01*
X165427543Y-101692563D01*
X165414828Y-101708527D01*
X165414591Y-101712153D01*
X165407554Y-101726835D01*
X165381873Y-101735980D01*
X165330688Y-101740732D01*
X165247144Y-101742232D01*
X165234022Y-101742248D01*
X165145930Y-101743421D01*
X165091058Y-101747701D01*
X165062551Y-101756232D01*
X165053549Y-101770156D01*
X165053454Y-101772343D01*
X165048752Y-101782196D01*
X165031559Y-101789683D01*
X164997241Y-101795113D01*
X164941166Y-101798794D01*
X164858702Y-101801036D01*
X164745215Y-101802148D01*
X164602032Y-101802437D01*
X164454236Y-101802124D01*
X164341930Y-101800978D01*
X164260482Y-101798690D01*
X164205259Y-101794952D01*
X164171629Y-101789454D01*
X164154958Y-101781888D01*
X164150610Y-101772343D01*
X164143573Y-101757661D01*
X164117891Y-101748515D01*
X164066707Y-101743764D01*
X163983163Y-101742264D01*
X163970041Y-101742248D01*
X163881949Y-101741075D01*
X163827077Y-101736795D01*
X163798570Y-101728264D01*
X163789568Y-101714340D01*
X163789473Y-101712153D01*
X163780228Y-101694678D01*
X163747455Y-101685296D01*
X163683598Y-101682118D01*
X163669093Y-101682058D01*
X163599195Y-101679747D01*
X163561666Y-101671554D01*
X163548952Y-101655590D01*
X163548714Y-101651964D01*
X163536899Y-101632128D01*
X163496723Y-101623092D01*
X163458430Y-101621869D01*
X163398922Y-101617930D01*
X163371817Y-101604538D01*
X163368146Y-101591774D01*
X163356330Y-101571938D01*
X163316154Y-101562903D01*
X163277861Y-101561679D01*
X163218354Y-101557741D01*
X163191248Y-101544349D01*
X163187577Y-101531584D01*
X163169632Y-101507692D01*
X163127387Y-101501490D01*
X163079602Y-101492517D01*
X163067198Y-101471395D01*
X163049253Y-101447502D01*
X163007008Y-101441300D01*
X162959223Y-101432327D01*
X162946819Y-101411205D01*
X162928874Y-101387313D01*
X162886629Y-101381110D01*
X162838844Y-101372138D01*
X162826439Y-101351016D01*
X162808494Y-101327123D01*
X162766250Y-101320921D01*
X162718465Y-101311948D01*
X162706060Y-101290826D01*
X162690000Y-101264227D01*
X162675965Y-101260731D01*
X162649366Y-101244671D01*
X162645871Y-101230637D01*
X162627926Y-101206744D01*
X162585681Y-101200542D01*
X162537896Y-101191569D01*
X162525492Y-101170447D01*
X162509432Y-101143848D01*
X162495397Y-101140352D01*
X162468798Y-101124292D01*
X162465302Y-101110257D01*
X162447357Y-101086365D01*
X162405112Y-101080163D01*
X162357328Y-101071190D01*
X162344923Y-101050068D01*
X162328863Y-101023469D01*
X162314828Y-101019973D01*
X162288229Y-101003913D01*
X162284733Y-100989878D01*
X162268673Y-100963279D01*
X162254638Y-100959783D01*
X162228039Y-100943724D01*
X162224544Y-100929689D01*
X162208484Y-100903089D01*
X162194449Y-100899594D01*
X162167850Y-100883534D01*
X162164354Y-100869499D01*
X162148294Y-100842900D01*
X162134259Y-100839404D01*
X162107660Y-100823344D01*
X162104165Y-100809310D01*
X162086219Y-100785417D01*
X162043975Y-100779215D01*
X162001343Y-100774243D01*
X161985629Y-100750793D01*
X161983785Y-100719025D01*
X161974813Y-100671240D01*
X161953691Y-100658836D01*
X161927091Y-100642776D01*
X161923596Y-100628741D01*
X161907536Y-100602142D01*
X161893501Y-100598646D01*
X161866902Y-100582586D01*
X161863406Y-100568551D01*
X161847346Y-100541952D01*
X161833311Y-100538456D01*
X161806712Y-100522396D01*
X161803217Y-100508362D01*
X161787157Y-100481762D01*
X161773122Y-100478267D01*
X161746523Y-100462207D01*
X161743027Y-100448172D01*
X161726967Y-100421573D01*
X161712932Y-100418077D01*
X161686333Y-100402017D01*
X161682838Y-100387982D01*
X161666778Y-100361383D01*
X161652743Y-100357888D01*
X161628850Y-100339943D01*
X161622648Y-100297698D01*
X161613675Y-100249913D01*
X161592553Y-100237509D01*
X161565954Y-100221449D01*
X161562458Y-100207414D01*
X161546398Y-100180815D01*
X161532364Y-100177319D01*
X161508471Y-100159374D01*
X161502269Y-100117129D01*
X161493296Y-100069345D01*
X161472174Y-100056940D01*
X161445575Y-100040880D01*
X161442079Y-100026845D01*
X161426019Y-100000246D01*
X161411984Y-99996750D01*
X161388092Y-99978805D01*
X161381890Y-99936561D01*
X161372917Y-99888776D01*
X161351795Y-99876371D01*
X161327902Y-99858426D01*
X161321700Y-99816182D01*
X161312728Y-99768397D01*
X161291605Y-99755992D01*
X161267713Y-99738047D01*
X161261511Y-99695802D01*
X161252538Y-99648018D01*
X161231416Y-99635613D01*
X161207523Y-99617668D01*
X161201321Y-99575423D01*
X161192348Y-99527638D01*
X161171226Y-99515234D01*
X161151390Y-99503418D01*
X161142355Y-99463242D01*
X161141131Y-99424949D01*
X161137193Y-99365442D01*
X161123801Y-99338336D01*
X161111037Y-99334665D01*
X161091201Y-99322849D01*
X161082165Y-99282674D01*
X161080942Y-99244381D01*
X161077003Y-99184873D01*
X161063611Y-99157767D01*
X161050847Y-99154096D01*
X161033372Y-99144851D01*
X161023990Y-99112079D01*
X161020812Y-99048221D01*
X161020752Y-99033717D01*
X161018441Y-98963818D01*
X161010248Y-98926290D01*
X160994284Y-98913575D01*
X160990657Y-98913338D01*
X160975975Y-98906301D01*
X160966830Y-98880619D01*
X160962079Y-98829435D01*
X160960579Y-98745891D01*
X160960563Y-98732769D01*
X160959390Y-98644677D01*
X160955110Y-98589805D01*
X160946579Y-98561297D01*
X160932655Y-98552296D01*
X160930468Y-98552200D01*
X160920308Y-98547391D01*
X160912673Y-98529772D01*
X160907220Y-98494560D01*
X160903607Y-98436969D01*
X160901494Y-98352215D01*
X160900537Y-98235514D01*
X160900373Y-98130873D01*
X161201321Y-98130873D01*
X161201664Y-98273107D01*
X161202923Y-98380003D01*
X161205438Y-98456346D01*
X161209552Y-98506920D01*
X161215606Y-98536511D01*
X161223941Y-98549903D01*
X161231416Y-98552200D01*
X161246098Y-98559237D01*
X161255243Y-98584919D01*
X161259994Y-98636103D01*
X161261495Y-98719647D01*
X161261511Y-98732769D01*
X161262683Y-98820862D01*
X161266964Y-98875733D01*
X161275494Y-98904241D01*
X161289418Y-98913243D01*
X161291605Y-98913338D01*
X161309080Y-98922583D01*
X161318462Y-98955356D01*
X161321641Y-99019213D01*
X161321700Y-99033717D01*
X161324011Y-99103616D01*
X161332204Y-99141144D01*
X161348169Y-99153859D01*
X161351795Y-99154096D01*
X161375687Y-99172041D01*
X161381890Y-99214286D01*
X161390862Y-99262071D01*
X161411984Y-99274475D01*
X161431820Y-99286291D01*
X161440856Y-99326467D01*
X161442079Y-99364760D01*
X161446018Y-99424267D01*
X161459410Y-99451373D01*
X161472174Y-99455044D01*
X161496066Y-99472989D01*
X161502269Y-99515234D01*
X161511241Y-99563019D01*
X161532364Y-99575423D01*
X161556256Y-99593368D01*
X161562458Y-99635613D01*
X161571431Y-99683398D01*
X161592553Y-99695802D01*
X161616446Y-99713747D01*
X161622648Y-99755992D01*
X161631620Y-99803777D01*
X161652743Y-99816182D01*
X161679342Y-99832241D01*
X161682838Y-99846276D01*
X161698897Y-99872875D01*
X161712932Y-99876371D01*
X161736825Y-99894316D01*
X161743027Y-99936561D01*
X161752000Y-99984346D01*
X161773122Y-99996750D01*
X161799721Y-100012810D01*
X161803217Y-100026845D01*
X161819277Y-100053444D01*
X161833311Y-100056940D01*
X161857204Y-100074885D01*
X161863406Y-100117129D01*
X161872379Y-100164914D01*
X161893501Y-100177319D01*
X161920100Y-100193379D01*
X161923596Y-100207414D01*
X161939656Y-100234013D01*
X161953691Y-100237509D01*
X161980290Y-100253568D01*
X161983785Y-100267603D01*
X161999845Y-100294202D01*
X162013880Y-100297698D01*
X162040479Y-100313758D01*
X162043975Y-100327793D01*
X162060035Y-100354392D01*
X162074070Y-100357888D01*
X162100669Y-100373948D01*
X162104165Y-100387982D01*
X162120224Y-100414582D01*
X162134259Y-100418077D01*
X162158152Y-100436022D01*
X162164354Y-100478267D01*
X162169326Y-100520899D01*
X162192776Y-100536612D01*
X162224544Y-100538456D01*
X162272329Y-100547429D01*
X162284733Y-100568551D01*
X162300793Y-100595150D01*
X162314828Y-100598646D01*
X162341427Y-100614706D01*
X162344923Y-100628741D01*
X162360983Y-100655340D01*
X162375018Y-100658836D01*
X162401617Y-100674895D01*
X162405112Y-100688930D01*
X162421172Y-100715530D01*
X162435207Y-100719025D01*
X162461806Y-100735085D01*
X162465302Y-100749120D01*
X162481362Y-100775719D01*
X162495397Y-100779215D01*
X162521996Y-100795275D01*
X162525492Y-100809310D01*
X162543437Y-100833202D01*
X162585681Y-100839404D01*
X162633466Y-100848377D01*
X162645871Y-100869499D01*
X162661931Y-100896098D01*
X162675965Y-100899594D01*
X162702565Y-100915654D01*
X162706060Y-100929689D01*
X162724005Y-100953581D01*
X162766250Y-100959783D01*
X162814035Y-100968756D01*
X162826439Y-100989878D01*
X162842499Y-101016477D01*
X162856534Y-101019973D01*
X162883133Y-101036033D01*
X162886629Y-101050068D01*
X162904574Y-101073960D01*
X162946819Y-101080163D01*
X162994603Y-101089135D01*
X163007008Y-101110257D01*
X163024953Y-101134150D01*
X163067198Y-101140352D01*
X163114983Y-101149325D01*
X163127387Y-101170447D01*
X163145332Y-101194339D01*
X163187577Y-101200542D01*
X163235362Y-101209514D01*
X163247766Y-101230637D01*
X163259582Y-101250472D01*
X163299758Y-101259508D01*
X163338051Y-101260731D01*
X163397558Y-101264670D01*
X163424664Y-101278062D01*
X163428335Y-101290826D01*
X163440151Y-101310662D01*
X163480326Y-101319697D01*
X163518620Y-101320921D01*
X163578127Y-101324859D01*
X163605233Y-101338251D01*
X163608904Y-101351016D01*
X163618149Y-101368490D01*
X163650921Y-101377872D01*
X163714779Y-101381051D01*
X163729283Y-101381110D01*
X163799182Y-101383422D01*
X163836710Y-101391615D01*
X163849425Y-101407579D01*
X163849662Y-101411205D01*
X163857545Y-101427079D01*
X163886029Y-101436397D01*
X163942373Y-101440610D01*
X164000136Y-101441300D01*
X164079507Y-101442876D01*
X164126097Y-101448573D01*
X164147162Y-101459842D01*
X164150610Y-101471395D01*
X164155312Y-101481248D01*
X164172505Y-101488735D01*
X164206823Y-101494165D01*
X164262898Y-101497846D01*
X164345362Y-101500088D01*
X164458849Y-101501200D01*
X164602032Y-101501490D01*
X164749828Y-101501176D01*
X164862134Y-101500030D01*
X164943582Y-101497742D01*
X164998805Y-101494004D01*
X165032435Y-101488506D01*
X165049105Y-101480940D01*
X165053454Y-101471395D01*
X165060490Y-101456713D01*
X165086172Y-101447567D01*
X165137356Y-101442816D01*
X165220900Y-101441316D01*
X165234022Y-101441300D01*
X165322115Y-101440127D01*
X165376986Y-101435847D01*
X165405494Y-101427316D01*
X165414496Y-101413392D01*
X165414591Y-101411205D01*
X165426407Y-101391369D01*
X165466582Y-101382334D01*
X165504875Y-101381110D01*
X165564383Y-101377172D01*
X165591489Y-101363780D01*
X165595160Y-101351016D01*
X165606975Y-101331180D01*
X165647151Y-101322145D01*
X165685444Y-101320921D01*
X165744952Y-101316982D01*
X165772057Y-101303590D01*
X165775729Y-101290826D01*
X165787544Y-101270990D01*
X165827720Y-101261955D01*
X165866013Y-101260731D01*
X165925520Y-101256793D01*
X165952626Y-101243401D01*
X165956297Y-101230637D01*
X165974242Y-101206744D01*
X166016487Y-101200542D01*
X166064272Y-101191569D01*
X166076676Y-101170447D01*
X166094621Y-101146555D01*
X166136866Y-101140352D01*
X166184651Y-101131380D01*
X166197056Y-101110257D01*
X166215001Y-101086365D01*
X166257245Y-101080163D01*
X166305030Y-101071190D01*
X166317435Y-101050068D01*
X166333495Y-101023469D01*
X166347529Y-101019973D01*
X166374129Y-101003913D01*
X166377624Y-100989878D01*
X166395569Y-100965986D01*
X166437814Y-100959783D01*
X166485599Y-100950811D01*
X166498003Y-100929689D01*
X166514063Y-100903089D01*
X166528098Y-100899594D01*
X166554697Y-100883534D01*
X166558193Y-100869499D01*
X166576138Y-100845607D01*
X166618383Y-100839404D01*
X166666167Y-100830432D01*
X166678572Y-100809310D01*
X166694632Y-100782710D01*
X166708667Y-100779215D01*
X166735266Y-100763155D01*
X166738762Y-100749120D01*
X166754822Y-100722521D01*
X166768856Y-100719025D01*
X166795456Y-100702965D01*
X166798951Y-100688930D01*
X166815011Y-100662331D01*
X166829046Y-100658836D01*
X166855645Y-100642776D01*
X166859141Y-100628741D01*
X166877086Y-100604848D01*
X166919330Y-100598646D01*
X166967115Y-100589673D01*
X166979520Y-100568551D01*
X166995580Y-100541952D01*
X167009615Y-100538456D01*
X167036214Y-100522396D01*
X167039710Y-100508362D01*
X167055769Y-100481762D01*
X167069804Y-100478267D01*
X167093697Y-100460322D01*
X167099899Y-100418077D01*
X167108872Y-100370292D01*
X167129994Y-100357888D01*
X167156593Y-100341828D01*
X167160089Y-100327793D01*
X167176149Y-100301194D01*
X167190184Y-100297698D01*
X167216783Y-100281638D01*
X167220278Y-100267603D01*
X167236338Y-100241004D01*
X167250373Y-100237509D01*
X167276972Y-100221449D01*
X167280468Y-100207414D01*
X167296528Y-100180815D01*
X167310563Y-100177319D01*
X167334455Y-100159374D01*
X167340657Y-100117129D01*
X167349630Y-100069345D01*
X167370752Y-100056940D01*
X167397351Y-100040880D01*
X167400847Y-100026845D01*
X167416907Y-100000246D01*
X167430942Y-99996750D01*
X167457541Y-99980690D01*
X167461037Y-99966655D01*
X167477097Y-99940056D01*
X167491131Y-99936561D01*
X167515024Y-99918616D01*
X167521226Y-99876371D01*
X167530199Y-99828586D01*
X167551321Y-99816182D01*
X167575213Y-99798236D01*
X167581416Y-99755992D01*
X167590388Y-99708207D01*
X167611511Y-99695802D01*
X167635403Y-99677857D01*
X167641605Y-99635613D01*
X167650578Y-99587828D01*
X167671700Y-99575423D01*
X167695593Y-99557478D01*
X167701795Y-99515234D01*
X167710767Y-99467449D01*
X167731890Y-99455044D01*
X167751726Y-99443229D01*
X167760761Y-99403053D01*
X167761984Y-99364760D01*
X167765923Y-99305252D01*
X167779315Y-99278146D01*
X167792079Y-99274475D01*
X167815972Y-99256530D01*
X167822174Y-99214286D01*
X167831147Y-99166501D01*
X167852269Y-99154096D01*
X167869743Y-99144851D01*
X167879126Y-99112079D01*
X167882304Y-99048221D01*
X167882364Y-99033717D01*
X167884675Y-98963818D01*
X167892868Y-98926290D01*
X167908832Y-98913575D01*
X167912458Y-98913338D01*
X167927140Y-98906301D01*
X167936286Y-98880619D01*
X167941037Y-98829435D01*
X167942537Y-98745891D01*
X167942553Y-98732769D01*
X167943726Y-98644677D01*
X167948006Y-98589805D01*
X167956537Y-98561297D01*
X167970461Y-98552296D01*
X167972648Y-98552200D01*
X167982807Y-98547391D01*
X167990443Y-98529772D01*
X167995896Y-98494560D01*
X167999508Y-98436969D01*
X168001622Y-98352215D01*
X168002579Y-98235514D01*
X168002743Y-98130873D01*
X168002399Y-97988640D01*
X168001141Y-97881744D01*
X167998626Y-97805401D01*
X167994512Y-97754827D01*
X167988458Y-97725236D01*
X167980122Y-97711844D01*
X167972648Y-97709546D01*
X167957966Y-97702510D01*
X167948821Y-97676828D01*
X167944069Y-97625644D01*
X167942569Y-97542100D01*
X167942553Y-97528978D01*
X167941380Y-97440885D01*
X167937100Y-97386014D01*
X167928569Y-97357506D01*
X167914645Y-97348504D01*
X167912458Y-97348409D01*
X167894984Y-97339164D01*
X167885602Y-97306391D01*
X167882423Y-97242534D01*
X167882364Y-97228030D01*
X167880052Y-97158131D01*
X167871859Y-97120603D01*
X167855895Y-97107888D01*
X167852269Y-97107651D01*
X167828376Y-97089706D01*
X167822174Y-97047461D01*
X167813201Y-96999676D01*
X167792079Y-96987272D01*
X167772243Y-96975456D01*
X167763208Y-96935280D01*
X167761984Y-96896987D01*
X167758046Y-96837480D01*
X167744654Y-96810374D01*
X167731890Y-96806703D01*
X167707997Y-96788758D01*
X167701795Y-96746513D01*
X167692822Y-96698728D01*
X167671700Y-96686324D01*
X167647808Y-96668379D01*
X167641605Y-96626134D01*
X167632633Y-96578349D01*
X167611511Y-96565945D01*
X167587618Y-96548000D01*
X167581416Y-96505755D01*
X167572443Y-96457970D01*
X167551321Y-96445565D01*
X167524722Y-96429506D01*
X167521226Y-96415471D01*
X167503281Y-96391578D01*
X167461037Y-96385376D01*
X167413252Y-96394348D01*
X167400847Y-96415471D01*
X167389031Y-96435306D01*
X167348856Y-96444342D01*
X167310563Y-96445565D01*
X167251055Y-96449504D01*
X167223949Y-96462896D01*
X167220278Y-96475660D01*
X167215957Y-96484322D01*
X167200300Y-96491180D01*
X167169265Y-96496435D01*
X167118812Y-96500291D01*
X167044900Y-96502948D01*
X166943488Y-96504609D01*
X166810535Y-96505477D01*
X166642000Y-96505752D01*
X166618383Y-96505755D01*
X166445146Y-96505539D01*
X166307993Y-96504756D01*
X166202883Y-96503204D01*
X166125775Y-96500682D01*
X166072628Y-96496986D01*
X166039402Y-96491915D01*
X166022054Y-96485268D01*
X166016544Y-96476841D01*
X166016487Y-96475660D01*
X166004671Y-96455824D01*
X165964496Y-96446789D01*
X165926202Y-96445565D01*
X165866695Y-96441627D01*
X165839589Y-96428235D01*
X165835918Y-96415471D01*
X165819858Y-96388871D01*
X165805823Y-96385376D01*
X165785987Y-96373560D01*
X165776952Y-96333385D01*
X165775729Y-96295091D01*
X165779667Y-96235584D01*
X165793059Y-96208478D01*
X165805823Y-96204807D01*
X165832422Y-96188747D01*
X165835918Y-96174712D01*
X165847734Y-96154876D01*
X165887909Y-96145841D01*
X165926202Y-96144618D01*
X165985710Y-96140679D01*
X166012816Y-96127287D01*
X166016487Y-96114523D01*
X166020808Y-96105861D01*
X166036466Y-96099003D01*
X166067500Y-96093748D01*
X166117953Y-96089892D01*
X166191865Y-96087235D01*
X166293277Y-96085574D01*
X166426231Y-96084706D01*
X166594765Y-96084431D01*
X166618383Y-96084428D01*
X166791619Y-96084644D01*
X166928772Y-96085427D01*
X167033882Y-96086979D01*
X167110990Y-96089501D01*
X167164137Y-96093197D01*
X167197364Y-96098268D01*
X167214711Y-96104915D01*
X167220221Y-96113342D01*
X167220278Y-96114523D01*
X167238223Y-96138415D01*
X167280468Y-96144618D01*
X167328253Y-96135645D01*
X167340657Y-96114523D01*
X167324598Y-96087924D01*
X167310563Y-96084428D01*
X167283963Y-96068368D01*
X167280468Y-96054333D01*
X167264408Y-96027734D01*
X167250373Y-96024238D01*
X167223774Y-96008178D01*
X167220278Y-95994144D01*
X167204218Y-95967544D01*
X167190184Y-95964049D01*
X167163584Y-95947989D01*
X167160089Y-95933954D01*
X167144029Y-95907355D01*
X167129994Y-95903859D01*
X167103395Y-95887799D01*
X167099899Y-95873764D01*
X167083839Y-95847165D01*
X167069804Y-95843670D01*
X167045912Y-95825725D01*
X167039710Y-95783480D01*
X167034738Y-95740848D01*
X167011288Y-95725134D01*
X166979520Y-95723291D01*
X166931735Y-95714318D01*
X166919330Y-95693196D01*
X166903270Y-95666597D01*
X166889236Y-95663101D01*
X166862636Y-95647041D01*
X166859141Y-95633006D01*
X166843081Y-95606407D01*
X166829046Y-95602911D01*
X166802447Y-95586851D01*
X166798951Y-95572817D01*
X166782891Y-95546217D01*
X166768856Y-95542722D01*
X166742257Y-95526662D01*
X166738762Y-95512627D01*
X166722702Y-95486028D01*
X166708667Y-95482532D01*
X166682068Y-95466472D01*
X166678572Y-95452437D01*
X166660627Y-95428545D01*
X166618383Y-95422343D01*
X166570598Y-95413370D01*
X166558193Y-95392248D01*
X166542133Y-95365649D01*
X166528098Y-95362153D01*
X166501499Y-95346093D01*
X166498003Y-95332058D01*
X166480058Y-95308166D01*
X166437814Y-95301964D01*
X166390029Y-95292991D01*
X166377624Y-95271869D01*
X166361564Y-95245270D01*
X166347529Y-95241774D01*
X166320930Y-95225714D01*
X166317435Y-95211679D01*
X166299490Y-95187787D01*
X166257245Y-95181584D01*
X166209460Y-95172612D01*
X166197056Y-95151490D01*
X166179110Y-95127597D01*
X166136866Y-95121395D01*
X166089081Y-95112422D01*
X166076676Y-95091300D01*
X166058731Y-95067408D01*
X166016487Y-95061205D01*
X165968702Y-95052233D01*
X165956297Y-95031110D01*
X165944482Y-95011275D01*
X165904306Y-95002239D01*
X165866013Y-95001016D01*
X165806505Y-94997077D01*
X165779400Y-94983685D01*
X165775729Y-94970921D01*
X165763913Y-94951085D01*
X165723737Y-94942050D01*
X165685444Y-94940826D01*
X165625937Y-94936888D01*
X165598831Y-94923496D01*
X165595160Y-94910731D01*
X165585915Y-94893257D01*
X165553142Y-94883875D01*
X165489285Y-94880696D01*
X165474781Y-94880637D01*
X165404882Y-94878325D01*
X165367354Y-94870132D01*
X165354639Y-94854168D01*
X165354402Y-94850542D01*
X165346519Y-94834668D01*
X165318034Y-94825350D01*
X165261691Y-94821136D01*
X165203928Y-94820447D01*
X165124557Y-94818870D01*
X165077967Y-94813174D01*
X165056901Y-94801905D01*
X165053454Y-94790352D01*
X165048644Y-94780193D01*
X165031025Y-94772557D01*
X164995813Y-94767104D01*
X164938222Y-94763492D01*
X164853468Y-94761378D01*
X164736767Y-94760422D01*
X164632127Y-94760257D01*
X164489893Y-94760601D01*
X164382997Y-94761859D01*
X164306654Y-94764375D01*
X164256080Y-94768488D01*
X164226489Y-94774542D01*
X164213098Y-94782878D01*
X164210800Y-94790352D01*
X164203763Y-94805034D01*
X164178081Y-94814179D01*
X164126897Y-94818931D01*
X164043353Y-94820431D01*
X164030231Y-94820447D01*
X163942138Y-94821620D01*
X163887267Y-94825900D01*
X163858759Y-94834431D01*
X163849757Y-94848355D01*
X163849662Y-94850542D01*
X163840417Y-94868016D01*
X163807645Y-94877398D01*
X163743787Y-94880577D01*
X163729283Y-94880637D01*
X163659384Y-94882948D01*
X163621856Y-94891141D01*
X163609141Y-94907105D01*
X163608904Y-94910731D01*
X163597088Y-94930567D01*
X163556913Y-94939602D01*
X163518620Y-94940826D01*
X163459112Y-94944765D01*
X163432006Y-94958156D01*
X163428335Y-94970921D01*
X163416520Y-94990757D01*
X163376344Y-94999792D01*
X163338051Y-95001016D01*
X163278543Y-95004954D01*
X163251437Y-95018346D01*
X163247766Y-95031110D01*
X163229821Y-95055003D01*
X163187577Y-95061205D01*
X163139792Y-95070178D01*
X163127387Y-95091300D01*
X163109442Y-95115192D01*
X163067198Y-95121395D01*
X163019413Y-95130367D01*
X163007008Y-95151490D01*
X162989063Y-95175382D01*
X162946819Y-95181584D01*
X162899034Y-95190557D01*
X162886629Y-95211679D01*
X162870569Y-95238278D01*
X162856534Y-95241774D01*
X162829935Y-95257834D01*
X162826439Y-95271869D01*
X162808494Y-95295761D01*
X162766250Y-95301964D01*
X162718465Y-95310936D01*
X162706060Y-95332058D01*
X162690000Y-95358657D01*
X162675965Y-95362153D01*
X162649366Y-95378213D01*
X162645871Y-95392248D01*
X162627926Y-95416140D01*
X162585681Y-95422343D01*
X162537896Y-95431315D01*
X162525492Y-95452437D01*
X162509432Y-95479037D01*
X162495397Y-95482532D01*
X162468798Y-95498592D01*
X162465302Y-95512627D01*
X162449242Y-95539226D01*
X162435207Y-95542722D01*
X162408608Y-95558782D01*
X162405112Y-95572817D01*
X162389052Y-95599416D01*
X162375018Y-95602911D01*
X162348418Y-95618971D01*
X162344923Y-95633006D01*
X162328863Y-95659605D01*
X162314828Y-95663101D01*
X162288229Y-95679161D01*
X162284733Y-95693196D01*
X162268673Y-95719795D01*
X162254638Y-95723291D01*
X162228039Y-95739350D01*
X162224544Y-95753385D01*
X162208484Y-95779984D01*
X162194449Y-95783480D01*
X162167850Y-95799540D01*
X162164354Y-95813575D01*
X162148294Y-95840174D01*
X162134259Y-95843670D01*
X162107660Y-95859730D01*
X162104165Y-95873764D01*
X162088105Y-95900364D01*
X162074070Y-95903859D01*
X162047471Y-95919919D01*
X162043975Y-95933954D01*
X162027915Y-95960553D01*
X162013880Y-95964049D01*
X161987281Y-95980109D01*
X161983785Y-95994144D01*
X161967725Y-96020743D01*
X161953691Y-96024238D01*
X161927091Y-96040298D01*
X161923596Y-96054333D01*
X161907536Y-96080932D01*
X161893501Y-96084428D01*
X161869609Y-96102373D01*
X161863406Y-96144618D01*
X161854434Y-96192402D01*
X161833311Y-96204807D01*
X161806712Y-96220867D01*
X161803217Y-96234902D01*
X161787157Y-96261501D01*
X161773122Y-96264997D01*
X161749229Y-96282942D01*
X161743027Y-96325186D01*
X161734055Y-96372971D01*
X161712932Y-96385376D01*
X161686333Y-96401436D01*
X161682838Y-96415471D01*
X161666778Y-96442070D01*
X161652743Y-96445565D01*
X161628850Y-96463510D01*
X161622648Y-96505755D01*
X161613675Y-96553540D01*
X161592553Y-96565945D01*
X161568661Y-96583890D01*
X161562458Y-96626134D01*
X161553486Y-96673919D01*
X161532364Y-96686324D01*
X161508471Y-96704269D01*
X161502269Y-96746513D01*
X161493296Y-96794298D01*
X161472174Y-96806703D01*
X161452338Y-96818518D01*
X161443303Y-96858694D01*
X161442079Y-96896987D01*
X161438141Y-96956495D01*
X161424749Y-96983601D01*
X161411984Y-96987272D01*
X161388092Y-97005217D01*
X161381890Y-97047461D01*
X161372917Y-97095246D01*
X161351795Y-97107651D01*
X161334320Y-97116896D01*
X161324938Y-97149668D01*
X161321759Y-97213526D01*
X161321700Y-97228030D01*
X161319389Y-97297929D01*
X161311196Y-97335457D01*
X161295231Y-97348172D01*
X161291605Y-97348409D01*
X161276923Y-97355446D01*
X161267778Y-97381128D01*
X161263027Y-97432312D01*
X161261526Y-97515856D01*
X161261511Y-97528978D01*
X161260338Y-97617070D01*
X161256057Y-97671942D01*
X161247527Y-97700450D01*
X161233603Y-97709451D01*
X161231416Y-97709546D01*
X161221256Y-97714356D01*
X161213621Y-97731975D01*
X161208168Y-97767187D01*
X161204555Y-97824778D01*
X161202442Y-97909532D01*
X161201485Y-98026233D01*
X161201321Y-98130873D01*
X160900373Y-98130873D01*
X160900717Y-97988640D01*
X160901975Y-97881744D01*
G37*
%TD*%
M02*
